<svg width="890" height="618" viewBox="0 0 1280 618" fill="none" xmlns="http://www.w3.org/2000/svg">
<path d="M1278.5 0H2V618H1278.5V0Z" fill="url(#paint0_linear)"/>
<path fill-rule="evenodd" clip-rule="evenodd" d="M2 570.424C2 570.424 87.7821 494.331 165.887 497.357C243.992 500.383 299.5 545.095 357.664 545.095C415.829 545.095 478.461 469.153 544.63 469.153C610.799 469.153 679.036 538.562 728.612 525.616C778.188 512.669 856.881 428.032 876.73 399.543C896.579 371.055 986.358 287.627 1101.18 269.036C1216 250.445 1262.84 212.95 1278.5 179.838V617.991H2V570.424Z" fill="url(#paint1_linear)"/>
<path d="M2 573.727C2 573.727 87.7821 495.744 165.887 498.845C243.992 501.946 299.5 547.767 357.664 547.767C415.829 547.767 478.461 469.94 544.63 469.94C610.799 469.94 679.036 541.073 728.612 527.803C778.188 514.534 856.881 427.796 876.73 398.601C896.579 369.407 986.358 283.904 1101.18 264.85C1216 245.795 1262.84 207.792 1278.5 173.439" stroke="#2595FF" stroke-width="3"/>
<path d="M101.727 513.464C104.664 513.464 107.045 511.554 107.045 509.197C107.045 506.841 104.664 504.931 101.727 504.931C98.7892 504.931 96.4079 506.841 96.4079 509.197C96.4079 511.554 98.7892 513.464 101.727 513.464Z" fill="#2A689A" stroke="#2595FF" stroke-width="2"/>
<path d="M341.735 548.662C344.673 548.662 347.054 546.752 347.054 544.395C347.054 542.039 344.673 540.129 341.735 540.129C338.798 540.129 336.416 542.039 336.416 544.395C336.416 546.752 338.798 548.662 341.735 548.662Z" fill="#2E6F9D" stroke="#2595FF" stroke-width="2"/>
<path d="M536.534 472.933C539.472 472.933 541.853 471.023 541.853 468.667C541.853 466.31 539.472 464.4 536.534 464.4C533.597 464.4 531.216 466.31 531.216 468.667C531.216 471.023 533.597 472.933 536.534 472.933Z" fill="#3275A2" stroke="#2595FF" stroke-width="2"/>
<path d="M728.01 530.529C730.947 530.529 733.328 528.619 733.328 526.263C733.328 523.907 730.947 521.997 728.01 521.997C725.072 521.997 722.691 523.907 722.691 526.263C722.691 528.619 725.072 530.529 728.01 530.529Z" fill="#32749A" stroke="#2595FF" stroke-width="2"/>
<path d="M898.874 375.339C901.812 375.339 904.193 373.429 904.193 371.073C904.193 368.716 901.812 366.806 898.874 366.806C895.937 366.806 893.556 368.716 893.556 371.073C893.556 373.429 895.937 375.339 898.874 375.339Z" fill="#347FAA" stroke="#2595FF" stroke-width="2"/>
<path d="M1144.64 262.865C1147.58 262.865 1149.96 260.955 1149.96 258.599C1149.96 256.243 1147.58 254.333 1144.64 254.333C1141.71 254.333 1139.33 256.243 1139.33 258.599C1139.33 260.955 1141.71 262.865 1144.64 262.865Z" fill="#34789C" stroke="#2595FF" stroke-width="2"/>
<path fill-rule="evenodd" clip-rule="evenodd" d="M1184.99 352.344C1155.46 337.068 1126.05 321.827 1096.6 306.622C1067.23 291.417 1037.78 276.177 1008.24 260.901C1004.99 259.195 999.207 259.444 995.482 261.362C952.356 283.637 909.388 305.876 866.5 328.08C823.493 350.319 780.526 372.558 737.479 394.833C733.793 396.751 733.396 399.665 736.607 401.299C766.058 416.539 795.588 431.815 825.079 447.092C854.648 462.403 884.139 477.679 913.59 492.884C916.761 494.519 922.31 494.341 925.957 492.458C968.885 470.254 1011.93 447.98 1055.06 425.67C1098.06 403.395 1141.15 381.12 1184.12 358.881C1187.8 356.962 1188.24 354.014 1184.99 352.344Z" fill="url(#paint2_linear)"/>
<path fill-rule="evenodd" clip-rule="evenodd" d="M1171.79 349.076C1143.09 334.226 1114.51 319.447 1085.9 304.633C1056.88 289.641 1027.83 274.578 998.652 259.48C995.442 257.81 989.734 258.023 986.048 259.941C943.477 281.968 901.064 303.923 858.731 325.842C816.239 347.797 773.866 369.752 731.335 391.742C731.216 391.814 731.097 391.849 730.978 391.92H728.323V395.295C728.323 395.331 728.323 395.366 728.323 395.366V395.402C728.362 396.432 729.076 397.391 730.463 398.137C759.517 413.165 788.691 428.263 817.825 443.326C846.998 458.425 876.172 473.523 905.186 488.55C908.318 490.185 913.788 489.971 917.395 488.124C959.768 466.205 1002.26 444.214 1044.87 422.188C1087.32 400.198 1129.85 378.207 1172.31 356.252C1174.01 355.364 1175 354.263 1175.24 353.197C1175.32 352.806 1175.32 352.451 1175.24 352.06V349.076H1171.79V349.076Z" fill="#414021"/>
<path fill-rule="evenodd" clip-rule="evenodd" d="M1173.14 346.234C1144 331.135 1114.95 316.108 1085.9 301.08C1056.88 286.088 1027.83 271.025 998.652 255.927C995.442 254.257 989.734 254.47 986.048 256.389C943.477 278.415 901.064 300.37 858.731 322.289C816.239 344.244 773.866 366.199 731.335 388.19C727.688 390.073 727.292 392.95 730.463 394.584C759.517 409.612 788.691 424.71 817.825 439.773C846.998 454.872 876.172 469.97 905.186 484.998C908.318 486.632 913.788 486.419 917.395 484.572C959.768 462.652 1002.26 440.662 1044.87 418.635C1087.32 396.645 1129.85 374.654 1172.31 352.699C1175.95 350.781 1176.35 347.868 1173.14 346.234Z" fill="#DDEFFC"/>
<path fill-rule="evenodd" clip-rule="evenodd" d="M1166.76 339.271L989.258 247.437L733.713 379.664L911.211 471.534L1166.76 339.271Z" fill="#F7F6F4"/>
<path fill-rule="evenodd" clip-rule="evenodd" d="M1168.54 339.271L912.995 471.534V482.547L1168.54 350.284V339.271Z" fill="#DBDCDC"/>
<path fill-rule="evenodd" clip-rule="evenodd" d="M735.497 379.664L912.995 471.534V482.547L735.497 390.677V379.664Z" fill="#C8C8C9"/>
<path fill-rule="evenodd" clip-rule="evenodd" d="M1146.58 335.434C1145.27 336.109 1145.27 337.175 1146.58 337.85C1147.89 338.525 1149.95 338.525 1151.22 337.85C1152.53 337.175 1152.53 336.109 1151.22 335.434C1149.95 334.759 1147.85 334.759 1146.58 335.434Z" fill="#B4B5B5"/>
<path fill-rule="evenodd" clip-rule="evenodd" d="M1164.14 330.46C1164.14 332.308 1163.59 334.297 1162.63 336.18L1161.56 335.611C1162.24 334.155 1162.63 332.627 1162.63 331.206C1162.63 327.263 1159.54 325.664 1155.74 327.654C1152.29 329.43 1149.43 333.551 1148.92 337.21L1147.69 336.571C1148.68 332.414 1151.93 328.08 1155.74 326.09C1160.37 323.746 1164.14 325.7 1164.14 330.46Z" fill="url(#paint3_linear)"/>
<path fill-rule="evenodd" clip-rule="evenodd" d="M1135.01 329.466C1133.7 330.141 1133.7 331.206 1135.01 331.881C1136.28 332.556 1138.38 332.556 1139.64 331.881C1140.95 331.206 1140.95 330.141 1139.64 329.466C1138.38 328.791 1136.31 328.791 1135.01 329.466Z" fill="#B4B5B5"/>
<path fill-rule="evenodd" clip-rule="evenodd" d="M1152.57 324.492C1152.57 326.339 1152.01 328.329 1151.06 330.212L1149.99 329.643C1150.66 328.187 1151.06 326.659 1151.06 325.238C1151.06 321.295 1147.97 319.696 1144.16 321.685C1140.71 323.462 1137.86 327.583 1137.35 331.242L1136.12 330.602C1137.11 326.446 1140.36 322.112 1144.16 320.122C1148.8 317.778 1152.57 319.696 1152.57 324.492Z" fill="url(#paint4_linear)"/>
<path fill-rule="evenodd" clip-rule="evenodd" d="M1123.47 323.462C1122.16 324.137 1122.16 325.202 1123.47 325.877C1124.74 326.552 1126.84 326.552 1128.11 325.877C1129.42 325.202 1129.42 324.137 1128.11 323.462C1126.84 322.787 1124.74 322.787 1123.47 323.462Z" fill="#B4B5B5"/>
<path fill-rule="evenodd" clip-rule="evenodd" d="M1140.99 318.524C1140.99 320.371 1140.44 322.36 1139.49 324.243L1138.42 323.675C1139.09 322.218 1139.49 320.691 1139.49 319.27C1139.49 315.326 1136.39 313.728 1132.59 315.717C1129.14 317.493 1126.29 321.614 1125.77 325.273L1124.54 324.634C1125.53 320.478 1128.78 316.143 1132.59 314.154C1137.27 311.774 1140.99 313.728 1140.99 318.524Z" fill="url(#paint5_linear)"/>
<path fill-rule="evenodd" clip-rule="evenodd" d="M1111.9 317.493C1110.59 318.168 1110.59 319.234 1111.9 319.909C1113.17 320.584 1115.27 320.584 1116.54 319.909C1117.84 319.234 1117.84 318.168 1116.54 317.493C1115.27 316.818 1113.17 316.818 1111.9 317.493Z" fill="#B4B5B5"/>
<path fill-rule="evenodd" clip-rule="evenodd" d="M1129.42 312.52C1129.42 314.367 1128.86 316.356 1127.91 318.239L1126.84 317.671C1127.51 316.214 1127.91 314.687 1127.91 313.266C1127.91 309.322 1124.82 307.724 1121.01 309.713C1117.57 311.489 1114.71 315.61 1114.2 319.27L1112.97 318.63C1113.96 314.474 1117.21 310.139 1121.01 308.15C1125.69 305.805 1129.42 307.724 1129.42 312.52Z" fill="url(#paint6_linear)"/>
<path fill-rule="evenodd" clip-rule="evenodd" d="M1100.32 311.489C1099.02 312.164 1099.02 313.23 1100.32 313.905C1101.59 314.58 1103.69 314.58 1104.96 313.905C1106.27 313.23 1106.27 312.164 1104.96 311.489C1103.69 310.85 1101.63 310.85 1100.32 311.489Z" fill="#B4B5B5"/>
<path fill-rule="evenodd" clip-rule="evenodd" d="M1117.88 306.551C1117.88 308.399 1117.33 310.388 1116.38 312.271L1115.31 311.703C1115.98 310.246 1116.38 308.718 1116.38 307.297C1116.38 303.354 1113.28 301.755 1109.48 303.745C1106.03 305.521 1103.18 309.642 1102.66 313.301L1101.43 312.662C1102.42 308.505 1105.67 304.171 1109.48 302.182C1114.12 299.837 1117.88 301.755 1117.88 306.551Z" fill="url(#paint7_linear)"/>
<path fill-rule="evenodd" clip-rule="evenodd" d="M1088.75 305.521C1087.44 306.196 1087.44 307.262 1088.75 307.937C1090.02 308.612 1092.12 308.612 1093.39 307.937C1094.69 307.262 1094.69 306.196 1093.39 305.521C1092.12 304.846 1090.06 304.846 1088.75 305.521Z" fill="#B4B5B5"/>
<path fill-rule="evenodd" clip-rule="evenodd" d="M1106.31 300.548C1106.31 302.395 1105.75 304.384 1104.8 306.267L1103.73 305.699C1104.41 304.242 1104.8 302.715 1104.8 301.294C1104.8 297.35 1101.71 295.752 1097.91 297.741C1094.46 299.517 1091.6 303.638 1091.09 307.297L1089.86 306.658C1090.85 302.501 1094.1 298.167 1097.91 296.178C1102.58 293.833 1106.31 295.787 1106.31 300.548Z" fill="url(#paint8_linear)"/>
<path fill-rule="evenodd" clip-rule="evenodd" d="M1077.21 299.517C1075.91 300.192 1075.91 301.258 1077.21 301.933C1078.48 302.608 1080.58 302.608 1081.85 301.933C1083.16 301.258 1083.16 300.192 1081.85 299.517C1080.58 298.878 1078.48 298.878 1077.21 299.517Z" fill="#B4B5B5"/>
<path fill-rule="evenodd" clip-rule="evenodd" d="M1094.73 294.579C1094.73 296.427 1094.18 298.416 1093.23 300.299L1092.16 299.73C1092.83 298.274 1093.23 296.746 1093.23 295.325C1093.23 291.382 1090.14 289.783 1086.33 291.773C1082.88 293.549 1080.03 297.67 1079.51 301.329L1078.28 300.69C1079.28 296.533 1082.53 292.199 1086.33 290.21C1091.01 287.865 1094.73 289.783 1094.73 294.579Z" fill="url(#paint9_linear)"/>
<path fill-rule="evenodd" clip-rule="evenodd" d="M1065.64 293.549C1064.33 294.224 1064.33 295.29 1065.64 295.965C1066.91 296.64 1069.01 296.64 1070.28 295.965C1071.59 295.29 1071.59 294.224 1070.28 293.549C1069.01 292.874 1066.91 292.874 1065.64 293.549Z" fill="#B4B5B5"/>
<path fill-rule="evenodd" clip-rule="evenodd" d="M1083.2 288.575C1083.2 290.423 1082.64 292.412 1081.69 294.295L1080.62 293.727C1081.3 292.27 1081.69 290.742 1081.69 289.321C1081.69 285.378 1078.6 283.779 1074.8 285.769C1071.35 287.545 1068.49 291.666 1067.98 295.325L1066.75 294.686C1067.74 290.529 1070.99 286.195 1074.8 284.206C1079.43 281.861 1083.2 283.815 1083.2 288.575Z" fill="url(#paint10_linear)"/>
<path fill-rule="evenodd" clip-rule="evenodd" d="M1054.07 287.58C1052.76 288.255 1052.76 289.321 1054.07 289.996C1055.33 290.671 1057.44 290.671 1058.7 289.996C1060.01 289.321 1060.01 288.255 1058.7 287.58C1057.44 286.905 1055.37 286.905 1054.07 287.58Z" fill="#B4B5B5"/>
<path fill-rule="evenodd" clip-rule="evenodd" d="M1071.63 282.607C1071.63 284.454 1071.07 286.444 1070.12 288.327L1069.05 287.758C1069.72 286.302 1070.12 284.774 1070.12 283.353C1070.12 279.41 1067.03 277.811 1063.22 279.8C1059.77 281.577 1056.92 285.698 1056.4 289.357L1055.18 288.717C1056.17 284.561 1059.42 280.227 1063.22 278.237C1067.86 275.892 1071.63 277.811 1071.63 282.607Z" fill="url(#paint11_linear)"/>
<path fill-rule="evenodd" clip-rule="evenodd" d="M1042.49 281.577C1041.18 282.252 1041.18 283.317 1042.49 283.992C1043.76 284.667 1045.86 284.667 1047.13 283.992C1048.44 283.317 1048.44 282.252 1047.13 281.577C1045.9 280.902 1043.8 280.902 1042.49 281.577Z" fill="#B4B5B5"/>
<path fill-rule="evenodd" clip-rule="evenodd" d="M1060.05 276.639C1060.05 278.486 1059.5 280.475 1058.55 282.358L1057.48 281.79C1058.15 280.333 1058.55 278.806 1058.55 277.385C1058.55 273.441 1055.45 271.843 1051.65 273.832C1048.2 275.608 1045.35 279.729 1044.83 283.388L1043.6 282.749C1044.59 278.592 1047.84 274.258 1051.65 272.269C1056.33 269.889 1060.05 271.843 1060.05 276.639Z" fill="url(#paint12_linear)"/>
<path fill-rule="evenodd" clip-rule="evenodd" d="M1030.96 275.608C1029.65 276.283 1029.65 277.349 1030.96 278.024C1032.23 278.699 1034.33 278.699 1035.59 278.024C1036.9 277.349 1036.9 276.283 1035.59 275.608C1034.33 274.933 1032.23 274.933 1030.96 275.608Z" fill="#B4B5B5"/>
<path fill-rule="evenodd" clip-rule="evenodd" d="M1048.48 270.635C1048.48 272.482 1047.92 274.471 1046.97 276.354L1045.9 275.786C1046.57 274.329 1046.97 272.802 1046.97 271.381C1046.97 267.437 1043.88 265.839 1040.07 267.828C1036.63 269.604 1033.77 273.725 1033.26 277.385L1032.03 276.745C1033.02 272.589 1036.27 268.254 1040.07 266.265C1044.75 263.92 1048.48 265.839 1048.48 270.635Z" fill="url(#paint13_linear)"/>
<path fill-rule="evenodd" clip-rule="evenodd" d="M1019.38 269.605C1018.08 270.279 1018.08 271.345 1019.38 272.02C1020.65 272.695 1022.75 272.695 1024.02 272.02C1025.33 271.345 1025.33 270.279 1024.02 269.605C1022.75 268.93 1020.69 268.93 1019.38 269.605Z" fill="#B4B5B5"/>
<path fill-rule="evenodd" clip-rule="evenodd" d="M1036.94 264.666C1036.94 266.514 1036.39 268.503 1035.44 270.386L1034.37 269.818C1035.04 268.361 1035.44 266.833 1035.44 265.412C1035.44 261.469 1032.34 259.87 1028.54 261.86C1025.09 263.636 1022.24 267.757 1021.72 271.416L1020.49 270.777C1021.48 266.62 1024.73 262.286 1028.54 260.297C1033.18 257.952 1036.94 259.87 1036.94 264.666Z" fill="url(#paint14_linear)"/>
<path fill-rule="evenodd" clip-rule="evenodd" d="M1007.81 263.636C1006.5 264.311 1006.5 265.377 1007.81 266.052C1009.08 266.727 1011.18 266.727 1012.45 266.052C1013.75 265.377 1013.75 264.311 1012.45 263.636C1011.18 262.961 1009.12 262.961 1007.81 263.636Z" fill="#B4B5B5"/>
<path fill-rule="evenodd" clip-rule="evenodd" d="M1025.37 258.662C1025.37 260.51 1024.81 262.499 1023.86 264.382L1022.79 263.814C1023.47 262.357 1023.86 260.83 1023.86 259.409C1023.86 255.465 1020.77 253.867 1016.97 255.856C1013.52 257.632 1010.66 261.753 1010.15 265.412L1008.92 264.773C1009.91 260.616 1013.16 256.282 1016.97 254.293C1021.64 251.948 1025.37 253.902 1025.37 258.662Z" fill="url(#paint15_linear)"/>
<path fill-rule="evenodd" clip-rule="evenodd" d="M996.274 257.632C994.966 258.307 994.966 259.373 996.274 260.048C997.542 260.723 999.643 260.723 1000.91 260.048C1002.22 259.373 1002.22 258.307 1000.91 257.632C999.643 256.993 997.542 256.993 996.274 257.632Z" fill="#B4B5B5"/>
<path fill-rule="evenodd" clip-rule="evenodd" d="M1013.79 252.694C1013.79 254.541 1013.24 256.531 1012.29 258.414L1011.22 257.845C1011.89 256.389 1012.29 254.861 1012.29 253.44C1012.29 249.497 1009.2 247.898 1005.39 249.888C1001.94 251.664 999.088 255.785 998.573 259.444L997.344 258.805C998.335 254.648 1001.59 250.314 1005.39 248.324C1010.07 245.98 1013.79 247.898 1013.79 252.694Z" fill="url(#paint16_linear)"/>
<path fill-rule="evenodd" clip-rule="evenodd" d="M1138.02 342.113L985.572 263.21L984.105 263.956L1136.59 342.859L1138.02 342.113Z" fill="url(#paint17_linear)"/>
<path fill-rule="evenodd" clip-rule="evenodd" d="M1127.2 347.726L974.711 268.823L973.284 269.569L1125.77 348.472L1127.2 347.726Z" fill="url(#paint18_linear)"/>
<path fill-rule="evenodd" clip-rule="evenodd" d="M1116.38 353.339L963.89 274.436L962.463 275.182L1114.91 354.085L1116.38 353.339Z" fill="url(#paint19_linear)"/>
<path fill-rule="evenodd" clip-rule="evenodd" d="M1105.52 358.952L953.069 280.049L951.602 280.795L1104.09 359.698L1105.52 358.952Z" fill="url(#paint20_linear)"/>
<path fill-rule="evenodd" clip-rule="evenodd" d="M1094.69 364.53L942.208 285.662L940.781 286.408L1093.27 365.311L1094.69 364.53Z" fill="url(#paint21_linear)"/>
<path fill-rule="evenodd" clip-rule="evenodd" d="M1083.87 370.143L931.387 291.24L929.96 291.986L1082.41 370.889L1083.87 370.143Z" fill="url(#paint22_linear)"/>
<path fill-rule="evenodd" clip-rule="evenodd" d="M1073.05 375.756L920.566 296.853L919.099 297.599L1071.59 376.502L1073.05 375.756Z" fill="url(#paint23_linear)"/>
<path fill-rule="evenodd" clip-rule="evenodd" d="M1062.19 381.369L909.745 302.466L908.278 303.212L1060.76 382.115L1062.19 381.369Z" fill="url(#paint24_linear)"/>
<path fill-rule="evenodd" clip-rule="evenodd" d="M1051.37 386.982L898.884 308.079L897.457 308.825L1049.94 387.728L1051.37 386.982Z" fill="url(#paint25_linear)"/>
<path fill-rule="evenodd" clip-rule="evenodd" d="M1040.55 392.559L888.063 313.692L886.636 314.438L1039.08 393.305L1040.55 392.559Z" fill="url(#paint26_linear)"/>
<path fill-rule="evenodd" clip-rule="evenodd" d="M1029.69 398.173L877.242 319.27L875.775 320.016L1028.26 398.919L1029.69 398.173Z" fill="url(#paint27_linear)"/>
<path fill-rule="evenodd" clip-rule="evenodd" d="M1018.87 403.786L866.381 324.883L864.954 325.629L1017.44 404.532L1018.87 403.786Z" fill="#DAD5D1"/>
<path fill-rule="evenodd" clip-rule="evenodd" d="M1008.05 409.399L855.56 330.496L854.133 331.242L1006.58 410.145L1008.05 409.399Z" fill="url(#paint28_linear)"/>
<path fill-rule="evenodd" clip-rule="evenodd" d="M997.226 415.012L844.739 336.109L843.272 336.855L995.759 415.758L997.226 415.012Z" fill="#DAD5D1"/>
<path fill-rule="evenodd" clip-rule="evenodd" d="M986.364 420.589L833.917 341.686L832.451 342.432L984.937 421.335L986.364 420.589Z" fill="url(#paint29_linear)"/>
<path fill-rule="evenodd" clip-rule="evenodd" d="M975.544 426.202L823.057 347.299L821.63 348.046L974.117 426.948L975.544 426.202Z" fill="url(#paint30_linear)"/>
<path fill-rule="evenodd" clip-rule="evenodd" d="M964.722 431.816L812.236 352.913L810.809 353.659L963.256 432.562L964.722 431.816Z" fill="url(#paint31_linear)"/>
<path fill-rule="evenodd" clip-rule="evenodd" d="M953.861 437.429L801.414 358.526L799.948 359.272L952.435 438.175L953.861 437.429Z" fill="url(#paint32_linear)"/>
<path fill-rule="evenodd" clip-rule="evenodd" d="M943.04 443.006L790.554 364.139L789.127 364.885L941.613 443.788L943.04 443.006Z" fill="url(#paint33_linear)"/>
<path fill-rule="evenodd" clip-rule="evenodd" d="M932.219 448.619L779.733 369.716L778.306 370.462L930.753 449.365L932.219 448.619Z" fill="url(#paint34_linear)"/>
<path d="M1050.66 278.521L1031.23 248.324L1032.5 247.685L1051.25 276.816L1071.74 268.219L1072.38 269.391L1050.66 278.521Z" fill="url(#paint35_linear)"/>
<path fill-rule="evenodd" clip-rule="evenodd" d="M1053.71 164.164V310.211V310.246C1053.71 310.672 1052.92 311.028 1051.93 311.028C1050.93 311.028 1050.14 310.708 1050.14 310.282V310.246V164.199L1053.71 164.164Z" fill="#808284"/>
<path fill-rule="evenodd" clip-rule="evenodd" d="M1051.96 311.028C1051.01 311.028 1050.22 310.708 1050.18 310.317V164.199H1051.96V311.028Z" fill="#929497"/>
<path fill-rule="evenodd" clip-rule="evenodd" d="M1051.96 163.595C1052.95 163.595 1053.75 163.88 1053.75 164.27C1053.75 164.661 1052.95 164.945 1051.96 164.981C1050.97 164.981 1050.18 164.697 1050.18 164.306C1050.18 163.915 1050.97 163.595 1051.96 163.595Z" fill="#6D6E70"/>
<path fill-rule="evenodd" clip-rule="evenodd" d="M1053.71 164.164V310.211V310.246C1053.71 310.672 1052.92 311.028 1051.93 311.028C1050.93 311.028 1050.14 310.708 1050.14 310.282V310.246V164.199L1053.71 164.164Z" fill="url(#paint36_linear)"/>
<path fill-rule="evenodd" clip-rule="evenodd" d="M1051.96 311.028C1050.97 311.028 1050.18 310.708 1050.18 310.282V310.246V164.199H1051.96V311.028Z" fill="url(#paint37_linear)"/>
<path fill-rule="evenodd" clip-rule="evenodd" d="M1051.96 163.595C1052.95 163.595 1053.75 163.88 1053.75 164.27C1053.75 164.661 1052.95 164.981 1051.96 164.981C1050.97 164.981 1050.18 164.697 1050.18 164.306C1050.18 163.915 1050.97 163.595 1051.96 163.595Z" fill="url(#paint38_linear)"/>
<path d="M990.884 225.481L1132.87 299.091C1132.31 298.807 1131.52 298.842 1130.69 299.269L988.664 225.659C989.536 225.233 990.329 225.197 990.884 225.481Z" fill="url(#paint39_linear)"/>
<path d="M1128.51 305.841L986.483 232.231C985.928 231.947 985.572 231.343 985.572 230.455C985.572 228.679 986.959 226.547 988.663 225.659L1130.65 299.269C1128.94 300.157 1127.55 302.288 1127.55 304.065C1127.59 304.953 1127.95 305.557 1128.51 305.841Z" fill="url(#paint40_linear)"/>
<path d="M1130.69 299.269C1132.39 298.38 1133.78 299.091 1133.78 300.867C1133.78 302.608 1132.39 304.775 1130.69 305.663C1128.98 306.551 1127.59 305.841 1127.59 304.065C1127.59 302.324 1128.94 300.157 1130.69 299.269Z" fill="url(#paint41_linear)"/>
<path fill-rule="evenodd" clip-rule="evenodd" d="M992.905 230.135V142.315L1126.48 211.449L1126.52 299.268L992.905 230.135Z" fill="url(#paint42_linear)"/>
<path fill-rule="evenodd" clip-rule="evenodd" d="M995.402 146.188L1123.19 213.012V294.082L995.402 228.856V146.188Z" fill="white"/>
<path d="M987.396 139.473L1130.69 213.616V211.449L987.396 137.555V139.473Z" fill="url(#paint43_linear)"/>
<path d="M1130.29 213.296L1051.57 166.793L988.901 140.397L989.536 139.225L1052.24 165.656L1131.08 212.195L1130.29 213.296Z" fill="url(#paint44_linear)"/>
<path d="M1050.9 326.588L1049.43 326.552L1050.3 294.65L1031.55 309.607L1030.6 308.647L1051.85 291.702L1050.9 326.588Z" fill="url(#paint45_linear)"/>
<path d="M1068.73 309.606L1050.58 293.655L1051.57 292.696L1069.76 308.683L1068.73 309.606Z" fill="url(#paint46_linear)"/>
<path fill-rule="evenodd" clip-rule="evenodd" d="M1002.1 377.994L1037.34 387.302C1014.98 410.251 960.957 419.382 916.681 407.658C907.842 405.313 900.945 402.72 893.889 399.096C858.691 380.907 858.533 351.385 893.453 333.16C928.414 314.935 985.255 314.971 1020.45 333.16C1048.6 347.726 1055.18 368.935 1037.3 387.266L1002.1 377.994Z" fill="url(#paint47_linear)"/>
<path fill-rule="evenodd" clip-rule="evenodd" d="M941.495 329.11L890.56 355.648L890.481 389.433L941.415 362.895L992.35 336.358L992.469 302.573L941.495 329.11Z" fill="#C3D8E4"/>
<path fill-rule="evenodd" clip-rule="evenodd" d="M875.973 344.848C874.982 343.747 874.071 342.575 873.318 341.438C872.168 339.697 871.217 337.956 870.583 336.144C869.711 333.764 869.275 331.348 869.275 328.933L869.156 362.718C869.116 372.381 876.251 382.079 890.481 389.433L890.6 355.648C884.337 352.415 879.462 348.756 875.973 344.848Z" fill="#D8ECFA"/>
<path fill-rule="evenodd" clip-rule="evenodd" d="M1030.44 379.912V379.806L1030.56 346.127L1038.57 328.258V361.972C1038.81 367.976 1036.19 374.051 1030.6 379.806C1030.52 379.841 1030.48 379.877 1030.44 379.912Z" fill="#DDEFFC"/>
<path fill-rule="evenodd" clip-rule="evenodd" d="M1016.97 302.573C1039.6 314.296 1044.91 331.384 1030.52 346.127L966.031 329.11L1016.97 302.573Z" fill="#DDEFFC"/>
<path fill-rule="evenodd" clip-rule="evenodd" d="M1030.52 346.127L1030.4 379.948L965.912 362.895L966.031 329.11L1030.52 346.127Z" fill="#C3D8E4"/>
<path fill-rule="evenodd" clip-rule="evenodd" d="M1008.96 356.465C1008.76 356.643 1008.56 356.82 1008.36 356.998C1007.97 357.353 1007.57 357.673 1007.17 358.028C1006.82 358.313 1006.42 358.597 1006.06 358.916C1005.75 359.165 1005.43 359.414 1005.11 359.627C1004.72 359.911 1004.32 360.195 1003.88 360.48C1003.57 360.693 1003.25 360.941 1002.89 361.155C1002.46 361.439 1002.02 361.723 1001.59 361.972C1001.27 362.185 1000.91 362.398 1000.59 362.611C1000.12 362.895 999.643 363.144 999.128 363.428C998.771 363.606 998.454 363.819 998.097 363.997C997.979 364.068 997.82 364.139 997.701 364.21C997.067 364.53 996.433 364.849 995.798 365.169C995.561 365.276 995.323 365.418 995.085 365.524C994.49 365.809 993.896 366.093 993.301 366.341C993.103 366.448 992.865 366.519 992.667 366.626C991.874 366.981 991.042 367.301 990.209 367.656C990.051 367.727 989.892 367.762 989.773 367.833C989.06 368.118 988.386 368.366 987.673 368.615C987.395 368.722 987.157 368.793 986.88 368.899C986.206 369.148 985.572 369.361 984.898 369.574C984.66 369.645 984.422 369.716 984.185 369.787C983.313 370.072 982.401 370.32 981.529 370.605C980.459 370.924 979.388 371.208 978.318 371.493L978.12 371.528C977.089 371.777 976.059 372.026 975.028 372.274C974.671 372.345 974.275 372.416 973.879 372.523C973.126 372.665 972.412 372.843 971.659 372.985C971.223 373.056 970.747 373.162 970.311 373.233C969.637 373.34 968.924 373.482 968.25 373.589C967.893 373.66 967.497 373.695 967.14 373.766C966.07 373.944 965 374.086 963.93 374.228C963.533 374.264 963.137 374.335 962.74 374.37C961.353 374.548 959.966 374.69 958.539 374.832C958.42 374.832 958.261 374.868 958.143 374.868C957.033 374.974 955.923 375.045 954.813 375.116C954.377 375.152 953.981 375.152 953.545 375.187C952.712 375.223 951.88 375.258 951.047 375.294C950.532 375.329 949.977 375.329 949.462 375.329C948.828 375.329 948.154 375.365 947.52 375.365C946.965 375.365 946.41 375.365 945.855 375.365C945.221 375.365 944.547 375.365 943.913 375.365C943.358 375.365 942.763 375.329 942.208 375.329C941.614 375.294 941.019 375.294 940.464 375.258C939.869 375.223 939.275 375.187 938.72 375.187C938.125 375.152 937.531 375.116 936.976 375.081C936.381 375.045 935.787 375.01 935.192 374.939C934.598 374.903 934.043 374.832 933.448 374.797C932.854 374.725 932.259 374.69 931.704 374.619C931.11 374.548 930.555 374.477 929.96 374.406C929.405 374.335 928.811 374.264 928.256 374.193C927.621 374.122 927.027 374.015 926.393 373.944C925.838 373.873 925.283 373.766 924.728 373.695C924.133 373.589 923.499 373.482 922.904 373.376C922.389 373.269 921.834 373.198 921.319 373.091C920.605 372.949 919.852 372.807 919.139 372.665C918.624 372.558 918.148 372.452 917.633 372.345C916.88 372.168 916.166 371.99 915.413 371.812C914.779 371.67 914.145 371.493 913.51 371.351C912.678 371.137 911.885 370.924 911.132 370.676C910.894 370.605 910.656 370.533 910.419 370.462C909.903 370.32 909.348 370.143 908.833 370.001C908.556 369.93 908.278 369.823 908.04 369.752C907.565 369.61 907.089 369.432 906.613 369.29C906.376 369.219 906.098 369.112 905.86 369.041C905.543 368.935 905.186 368.793 904.869 368.686C904.314 368.508 903.799 368.295 903.284 368.082C902.967 367.976 902.65 367.833 902.332 367.727C901.817 367.514 901.302 367.301 900.787 367.087C900.509 366.945 900.192 366.839 899.915 366.697C899.36 366.448 898.844 366.199 898.289 365.951C898.052 365.844 897.774 365.737 897.536 365.595C896.744 365.24 895.99 364.849 895.198 364.423L895.079 398.208C895.871 398.599 896.625 398.99 897.417 399.38C897.655 399.487 897.933 399.629 898.17 399.736C898.686 399.984 899.241 400.233 899.796 400.482C900.073 400.624 900.39 400.73 900.668 400.873C901.183 401.086 901.698 401.299 902.214 401.512C902.531 401.619 902.848 401.761 903.165 401.867C903.68 402.08 904.235 402.258 904.75 402.471C904.949 402.542 905.147 402.613 905.345 402.684C905.464 402.72 905.583 402.755 905.702 402.826C905.939 402.898 906.217 403.004 906.455 403.075C906.93 403.253 907.406 403.395 907.882 403.537C908.159 403.608 908.437 403.715 908.675 403.786C909.19 403.963 909.705 404.105 910.26 404.248C910.498 404.319 910.736 404.39 910.974 404.461C911.766 404.674 912.559 404.887 913.352 405.136C913.629 405.207 913.946 405.278 914.224 405.349C914.541 405.42 914.898 405.491 915.215 405.597C915.968 405.775 916.681 405.953 917.434 406.13C917.95 406.237 918.425 406.344 918.941 406.45C919.654 406.592 920.368 406.734 921.121 406.876C921.398 406.912 921.636 406.983 921.914 407.019C922.191 407.054 922.468 407.125 922.706 407.161C923.301 407.267 923.935 407.374 924.53 407.48C925.085 407.587 925.639 407.658 926.194 407.729C926.829 407.836 927.423 407.907 928.057 407.978C928.375 408.013 928.692 408.084 929.048 408.12C929.286 408.155 929.524 408.191 929.762 408.191C930.356 408.262 930.911 408.333 931.506 408.404C932.1 408.475 932.695 408.511 933.25 408.582C933.845 408.653 934.399 408.688 934.994 408.724C935.351 408.759 935.668 408.795 936.025 408.795C936.262 408.83 936.54 408.83 936.778 408.83C937.372 408.866 937.967 408.901 938.522 408.937C939.116 408.972 939.711 409.008 940.266 409.008C940.86 409.043 941.455 409.043 942.01 409.079C942.367 409.079 942.684 409.115 943.04 409.115C943.278 409.115 943.516 409.115 943.754 409.115C944.388 409.115 945.062 409.115 945.696 409.115C946.251 409.115 946.806 409.115 947.361 409.115C947.995 409.115 948.669 409.079 949.303 409.079C949.66 409.079 950.017 409.079 950.413 409.044C950.572 409.044 950.77 409.043 950.928 409.008C951.761 408.972 952.593 408.937 953.426 408.901C953.862 408.866 954.258 408.866 954.694 408.83C955.804 408.759 956.914 408.688 958.024 408.582C958.142 408.582 958.261 408.582 958.38 408.546H958.42C959.847 408.404 961.234 408.262 962.622 408.084C963.018 408.049 963.414 407.978 963.811 407.942C964.881 407.8 965.951 407.658 967.021 407.48C967.259 407.445 967.497 407.409 967.735 407.374C967.854 407.338 968.012 407.338 968.131 407.303C968.805 407.196 969.519 407.054 970.192 406.947C970.628 406.876 971.104 406.77 971.54 406.699C972.293 406.557 973.007 406.379 973.76 406.237C974.156 406.166 974.513 406.095 974.909 405.988C975.94 405.74 977.01 405.491 978.041 405.242L978.199 405.207C979.269 404.922 980.34 404.638 981.41 404.319L981.529 404.283C982.401 404.034 983.233 403.786 984.066 403.501C984.303 403.43 984.541 403.359 984.779 403.288C985.453 403.075 986.127 402.862 986.761 402.613C987.038 402.507 987.316 402.436 987.554 402.329C988.267 402.08 988.981 401.796 989.655 401.548C989.813 401.476 989.972 401.441 990.091 401.37C990.923 401.05 991.755 400.695 992.548 400.34C992.746 400.233 992.984 400.162 993.182 400.055C993.777 399.771 994.371 399.523 994.966 399.238C995.204 399.132 995.442 399.025 995.679 398.883C996.314 398.563 996.948 398.244 997.582 397.924C997.701 397.853 997.86 397.782 997.979 397.711L998.097 397.64C998.415 397.462 998.692 397.284 999.009 397.107C999.485 396.823 1000 396.574 1000.48 396.29C1000.83 396.077 1001.15 395.863 1001.47 395.65C1001.9 395.366 1002.34 395.117 1002.77 394.833C1003.13 394.62 1003.45 394.371 1003.77 394.158C1004.16 393.874 1004.6 393.59 1004.99 393.306C1005.31 393.057 1005.63 392.808 1005.95 392.595C1006.34 392.311 1006.7 392.027 1007.06 391.707L1007.25 391.565C1007.61 391.281 1007.93 390.996 1008.24 390.712C1008.44 390.535 1008.64 390.357 1008.84 390.179C1009.43 389.646 1009.99 389.113 1010.5 388.545L1010.62 354.76C1010.07 355.399 1009.51 355.968 1008.96 356.465Z" fill="url(#paint48_linear)"/>
<path fill-rule="evenodd" clip-rule="evenodd" d="M1010.62 354.867C992.627 373.34 949.145 380.658 913.51 371.28C906.376 369.397 900.826 367.301 895.158 364.387L946.093 337.85L1010.62 354.867Z" fill="url(#paint49_linear)"/>
<path opacity="0.1" fill-rule="evenodd" clip-rule="evenodd" d="M866.539 402.258C865.469 401.299 864.161 400.411 862.615 399.594C856.233 396.29 847.236 395.188 839.11 396.254C834.948 396.787 831.024 397.924 827.773 399.594C820.401 403.395 818.696 409.043 822.581 413.697C823.77 415.118 825.514 416.468 827.773 417.641C837.405 422.614 853.023 422.614 862.655 417.641C864.914 416.468 866.658 415.118 867.887 413.662C870.86 410.003 870.424 405.775 866.539 402.258Z" fill="#231916"/>
<path fill-rule="evenodd" clip-rule="evenodd" d="M780.406 351.278L753.492 337.317L776.284 325.522L803.198 339.448L776.284 325.522L799.115 313.728L813.068 306.516L839.982 320.442L813.068 306.516L835.899 294.686L849.852 287.474L876.766 301.4L849.852 287.474L872.644 275.679L886.636 268.432L913.55 282.358L886.636 268.432L898.051 262.535L924.965 276.461L913.55 282.358L890.758 294.153L876.766 301.4L853.974 313.195L839.982 320.442L817.19 332.237L803.198 339.448L780.406 351.278Z" fill="url(#paint50_linear)"/>
<path fill-rule="evenodd" clip-rule="evenodd" d="M893.652 171.589L870.82 159.794L893.652 147.999L916.443 159.794L893.652 171.589Z" fill="url(#paint51_linear)"/>
<path fill-rule="evenodd" clip-rule="evenodd" d="M893.652 288.398L916.443 276.603V159.794L893.652 171.589V288.398Z" fill="url(#paint52_linear)"/>
<path fill-rule="evenodd" clip-rule="evenodd" d="M893.652 288.398L870.82 276.603V159.794L893.652 171.589V288.398Z" fill="url(#paint53_linear)"/>
<path fill-rule="evenodd" clip-rule="evenodd" d="M870.82 203.171L848.029 191.376L870.82 179.582L893.652 191.376L870.82 203.171Z" fill="url(#paint54_linear)"/>
<path fill-rule="evenodd" clip-rule="evenodd" d="M870.82 300.228L893.652 288.398V191.377L870.82 203.171V300.228Z" fill="#DDEFFC"/>
<path fill-rule="evenodd" clip-rule="evenodd" d="M870.82 300.228L848.029 288.398V191.377L870.82 203.171V300.228Z" fill="#C3D8E4"/>
<path fill-rule="evenodd" clip-rule="evenodd" d="M848.029 243.955L825.197 232.16L848.029 220.366L870.82 232.16L848.029 243.955Z" fill="url(#paint55_linear)"/>
<path fill-rule="evenodd" clip-rule="evenodd" d="M848.029 312.022L870.82 300.228V232.16L848.029 243.955V312.022Z" fill="#C3D8E4"/>
<path fill-rule="evenodd" clip-rule="evenodd" d="M848.029 312.022L825.197 300.228V232.16L848.029 243.955V312.022Z" fill="url(#paint56_linear)"/>
<path fill-rule="evenodd" clip-rule="evenodd" d="M824.166 238.59L801.375 226.796L824.166 215.001L846.998 226.796L824.166 238.59Z" fill="url(#paint57_linear)"/>
<path fill-rule="evenodd" clip-rule="evenodd" d="M823.453 323.426L846.285 311.632V226.796L823.453 238.59V323.426Z" fill="#D8ECFA"/>
<path fill-rule="evenodd" clip-rule="evenodd" d="M824.166 323.426L801.375 311.632V226.796L824.166 238.59V323.426Z" fill="#C3D8E4"/>
<path fill-rule="evenodd" clip-rule="evenodd" d="M802.406 299.269L779.614 287.474L802.406 275.644L825.197 287.474L802.406 299.269Z" fill="url(#paint58_linear)"/>
<path fill-rule="evenodd" clip-rule="evenodd" d="M802.406 335.612L825.197 323.817V287.474L802.406 299.269V335.612Z" fill="#C3D8E4"/>
<path fill-rule="evenodd" clip-rule="evenodd" d="M802.406 335.114L779.614 323.32V286.941L802.406 298.736V335.114Z" fill="#D8ECFA"/>
<path fill-rule="evenodd" clip-rule="evenodd" d="M779.614 327.441L756.782 315.646L779.614 303.851L802.406 315.646L779.614 327.441Z" fill="url(#paint59_linear)"/>
<path fill-rule="evenodd" clip-rule="evenodd" d="M779.614 347.406L802.406 335.612V315.646L779.614 327.441V347.406Z" fill="#D8ECFA"/>
<path fill-rule="evenodd" clip-rule="evenodd" d="M779.614 347.406L756.782 335.612V315.646L779.614 327.441V347.406Z" fill="#C3D8E4"/>
<path d="M1034.96 202.745L1024.77 197.487L1024.66 229.744L1034.84 235.002L1034.96 202.745Z" fill="#D8ECFA"/>
<path d="M1048.48 217.63L1038.29 212.372L1038.21 236.779L1048.4 242.036L1048.48 217.63Z" fill="#C3D8E4"/>
<path d="M1062.07 206.404L1051.93 201.146L1051.77 243.777L1061.95 249.035L1062.07 206.404Z" fill="#4A8DB2"/>
<path d="M1075.67 199.796L1065.48 194.538L1065.32 250.776L1075.51 256.069L1075.67 199.796Z" fill="url(#paint60_linear)"/>
<path fill-rule="evenodd" clip-rule="evenodd" d="M846.088 244.213C845.969 244.284 845.85 244.355 845.691 244.426C843.908 245.208 841.49 244.142 841.014 242.473C840.459 240.483 844.344 239.027 845.81 238.387C846.643 238.032 853.46 235.225 853.262 236.469C853.223 236.753 852.866 236.93 852.549 237.073C851.597 237.463 850.686 237.854 849.734 238.245C849.1 238.494 848.426 238.813 848.149 239.346C847.951 239.702 847.951 240.128 847.911 240.554C847.792 241.726 847.237 243.432 846.088 244.213Z" fill="url(#paint61_linear)"/>
<path fill-rule="evenodd" clip-rule="evenodd" d="M819.372 244.249C826.942 244.533 834.276 242.082 841.331 239.63C842.917 241.158 843.709 243.325 843.392 245.386C839.191 246.665 834.949 247.908 830.748 249.187C828.251 249.933 825.753 250.679 823.177 251.105C820.482 251.567 817.707 251.674 814.932 251.78C812.316 251.887 809.66 251.958 807.044 251.851C802.526 251.638 797.809 249.613 799.87 244.675C800.147 243.965 800.623 243.325 801.297 242.899C802.962 241.869 807.718 242.863 809.66 243.112C812.911 243.503 816.121 244.142 819.372 244.249Z" fill="url(#paint62_linear)"/>
<path fill-rule="evenodd" clip-rule="evenodd" d="M810.295 323.152C810.889 326.456 809.185 330.79 810.453 332.46C812.197 334.733 814.813 335.515 817.747 335.337C819.015 335.266 820.006 334.449 819.729 332.992C819.213 329.049 817.43 326.491 817.073 322.832L810.295 323.152Z" fill="url(#paint63_linear)"/>
<path fill-rule="evenodd" clip-rule="evenodd" d="M823.217 315.443H829.044L830.986 316.224C834.672 317.823 837.645 320.096 840.578 322.441C842.441 323.933 839.865 325.567 837.011 325.283C833.959 324.963 831.779 323.365 828.885 321.979C826.745 320.949 824.565 320.665 822.741 319.457L823.217 315.443Z" fill="url(#paint64_linear)"/>
<path fill-rule="evenodd" clip-rule="evenodd" d="M807.322 275.902C807.322 275.902 821.274 282.972 829.717 290.503C829.717 290.503 833.166 304.962 832.571 315.869C832.571 315.869 829.519 319.777 822.028 318.391L819.253 294.163L796.659 283.363L794.677 276.542L807.322 275.902Z" fill="url(#paint65_linear)"/>
<path fill-rule="evenodd" clip-rule="evenodd" d="M794.677 279.029C794.677 279.029 815.131 291.96 817.311 294.944C817.033 294.873 818.341 313.56 818.777 322.05C818.777 322.05 813.862 325.425 808.63 322.903C809.066 322.903 805.974 301.587 805.3 299.42C805.3 299.42 789.643 293.488 787.146 291.036C784.649 288.585 783.262 282.19 784.451 280.094L794.677 279.029Z" fill="url(#paint66_linear)"/>
<path fill-rule="evenodd" clip-rule="evenodd" d="M833.879 256.15L832.334 255.475L820.72 261.656C818.421 262.9 816.518 264.676 815.289 266.808L808.353 278.744L809.899 279.419L833.879 256.15Z" fill="#D5D3D4"/>
<path fill-rule="evenodd" clip-rule="evenodd" d="M790.318 244.426C788.337 245.315 786.474 246.416 785.047 247.908C782.867 250.182 781.876 253.237 781.717 256.221C781.44 261.159 782.51 266.595 783.144 271.533C783.263 272.385 783.857 280.059 784.452 280.165C784.452 280.165 797.651 282.404 807.799 275.938C807.046 269.97 807.838 264.001 808.037 258.033C808.195 253.841 809.067 246.878 805.381 243.68C803.597 242.117 800.981 241.407 798.484 241.691C796.819 241.869 795.273 242.472 793.767 243.076C792.578 243.467 791.428 243.929 790.318 244.426Z" fill="url(#paint67_linear)"/>
<path fill-rule="evenodd" clip-rule="evenodd" d="M800.782 249.293C800.742 248.903 800.663 248.512 800.584 248.121C798.325 249.151 795.352 249.364 792.775 248.618C793.766 249.933 795.154 251.176 796.105 252.313C797.532 254.018 798.959 255.759 800.386 257.464C799.117 255.937 801.02 251.212 800.782 249.293Z" fill="url(#paint68_linear)"/>
<path fill-rule="evenodd" clip-rule="evenodd" d="M800.108 242.082L792.735 240.376C792.577 242.544 791.071 245.208 791.982 247.233C792.18 247.695 792.497 248.157 792.854 248.618C795.431 249.365 798.404 249.151 800.663 248.121C800.227 246.167 799.593 244.142 800.108 242.082Z" fill="url(#paint69_linear)"/>
<path fill-rule="evenodd" clip-rule="evenodd" d="M789.802 240.199C790.635 241.833 792.735 242.792 794.281 243.929C795.034 244.462 795.787 245.03 796.739 245.243C797.69 245.457 798.721 245.314 799.712 245.172C800.306 245.066 800.901 244.959 801.376 244.675C802.169 244.178 802.447 243.29 802.684 242.437C803.16 240.625 804.151 237.357 803.517 235.509C803.358 235.083 803.041 234.692 802.883 234.23C802.724 233.698 802.803 233.094 802.922 232.561C804.191 224.71 794.202 222.685 789.287 228.156C785.838 231.886 785.799 234.195 789.802 240.199Z" fill="url(#paint70_linear)"/>
<path fill-rule="evenodd" clip-rule="evenodd" d="M789.326 237.996C789.089 236.859 788.534 234.834 790.238 235.403L790.872 235.723C792.379 236.433 792.656 231.211 792.656 230.465C792.656 230.181 792.656 229.825 792.934 229.648C793.171 229.47 793.488 229.541 793.806 229.577C796.58 230.039 799.434 230.145 802.248 229.896C802.526 229.861 802.843 229.825 803.041 229.612C803.2 229.435 803.239 229.221 803.239 229.008C803.279 227.694 802.486 226.415 801.376 225.527C800.267 224.674 798.8 224.177 797.373 223.928C794.598 223.502 789.326 223.893 789.326 227.374C787.265 227.871 785.561 229.541 785.244 231.424C785.085 232.419 785.244 233.449 785.442 234.479C785.759 235.971 786.195 237.463 787.107 238.742C787.543 239.311 790.199 241.869 791.15 240.945C791.903 240.234 789.485 238.707 789.326 237.996Z" fill="url(#paint71_linear)"/>
<path fill-rule="evenodd" clip-rule="evenodd" d="M833.879 256.15L820.799 263.113C819.451 263.824 818.341 264.889 817.588 266.133L809.859 279.419L823.811 272.243C825.714 271.248 827.22 269.756 828.092 267.98L833.879 256.15Z" fill="#FFF7FA"/>
<path fill-rule="evenodd" clip-rule="evenodd" d="M784.927 249.897C789.842 250.075 790.04 260.52 790.238 263.326C790.397 265.778 790.159 268.335 790.555 270.751C796.303 272.101 801.812 272.598 807.639 272.954C807.837 272.954 808.075 272.989 808.234 273.096C808.353 273.202 808.432 273.38 808.471 273.522C808.868 275.014 808.789 276.577 808.353 278.034C801.892 278.354 795.391 278.034 788.93 277.394C784.728 277.004 784.173 275.512 783.024 272.243C782.35 270.325 781.835 268.371 781.478 266.417C780.725 262.225 780.447 258.424 780.923 254.161C781.121 252.207 782.509 250.253 784.927 249.897Z" fill="url(#paint72_linear)"/>
<path fill-rule="evenodd" clip-rule="evenodd" d="M917.078 201.146C916.523 199.619 913.233 201.821 913.312 203.171C913.431 204.805 913.867 206.688 915.492 207.434C916.007 205.445 916.523 203.455 917.038 201.501C917.078 201.359 917.117 201.253 917.078 201.146Z" fill="url(#paint73_linear)"/>
<path fill-rule="evenodd" clip-rule="evenodd" d="M960.283 238.2C961.551 238.235 962.78 238.093 964.009 237.773C965.436 237.383 966.942 236.779 968.369 237.169C968.131 237.88 967.259 238.413 966.427 238.306C967.101 238.271 975.068 239.23 974.751 239.585C973.126 241.326 970.193 241.894 967.775 242.001C965.04 242.107 962.344 241.575 959.689 241.077C959.292 241.006 958.777 240.686 959.015 240.402C958.38 240.118 959.015 240.118 959.054 239.479C959.094 238.875 959.609 238.306 960.283 238.129" fill="url(#paint74_linear)"/>
<path fill-rule="evenodd" clip-rule="evenodd" d="M892.185 234.647C892.265 235.926 892.344 237.169 892.502 238.448C890.203 239.23 887.389 239.834 885.051 238.981C883.108 238.271 881.523 236.956 880.056 235.571C879.66 235.216 879.303 234.541 879.779 234.256C879.937 234.15 880.175 234.15 880.413 234.15C882.315 234.256 885.685 234.931 887.349 234.292C886.874 233.759 886.16 233.652 885.487 233.262C885.328 233.155 885.051 232.906 885.368 232.8C886.319 232.551 887.468 232.942 888.38 233.191C889.014 233.368 889.648 233.581 890.283 233.83C890.6 233.972 890.917 234.114 891.234 234.256C891.432 234.363 891.749 234.612 891.947 234.612C892.185 234.683 891.908 234.683 892.185 234.647Z" fill="url(#paint75_linear)"/>
<path fill-rule="evenodd" clip-rule="evenodd" d="M914.105 213.047C909.626 212.443 906.217 225.659 905.464 231.45C900.47 232.16 895.634 233.048 890.957 234.079C892.344 235.322 892.542 236.921 891.789 238.733C897.497 238.164 903.205 237.383 908.833 236.423C912.797 231.734 915.334 225.979 916.801 217.559C917.038 215.96 915.611 213.545 914.105 213.047Z" fill="url(#paint76_linear)"/>
<path fill-rule="evenodd" clip-rule="evenodd" d="M934.043 310.104C933.528 313.053 935.034 316.889 933.924 318.346C932.378 320.371 930.079 321.046 927.463 320.904C926.353 320.833 925.481 320.122 925.719 318.808C926.155 315.326 927.741 313.053 928.097 309.82L934.043 310.104Z" fill="url(#paint77_linear)"/>
<path fill-rule="evenodd" clip-rule="evenodd" d="M922.588 303.816H917.435L915.73 304.526C912.48 305.947 909.824 307.972 907.248 310.033C905.583 311.347 907.882 312.804 910.419 312.555C913.114 312.271 915.057 310.85 917.633 309.607C919.536 308.683 921.478 308.434 923.063 307.368L922.588 303.816Z" fill="url(#paint78_linear)"/>
<path fill-rule="evenodd" clip-rule="evenodd" d="M922.706 255.145C918.624 253.653 914.144 252.481 910.22 250.74C910.062 255.11 909.467 259.622 910.339 263.956C911.251 268.397 912.202 272.837 913.035 277.278C914.739 286.017 914.898 294.934 915.254 303.816C917.831 304.882 920.447 304.811 923.142 303.816C922.944 295.29 923.895 286.906 922.31 278.486C920.883 270.67 923.023 262.784 922.706 255.145Z" fill="url(#paint79_linear)"/>
<path fill-rule="evenodd" clip-rule="evenodd" d="M934.479 261.753L921.2 256.851L919.416 256.14C920.883 265.341 923.023 274.614 924.807 283.85C926.512 292.59 926.67 301.507 927.027 310.388C929.603 311.454 932.219 311.383 934.915 310.388C934.717 301.862 935.668 293.478 934.082 285.058C932.655 277.243 934.796 269.391 934.479 261.753Z" fill="url(#paint80_linear)"/>
<path fill-rule="evenodd" clip-rule="evenodd" d="M927.899 217.701C927.621 217.666 919.179 215.072 919.179 215.072L915.135 215.463C915.135 215.463 912.4 220.792 912.4 221.147C912.4 221.502 910.419 231.414 910.419 231.414L912.638 253.405L921.24 256.851L925.322 255.43L924.728 236.068L927.899 217.701Z" fill="url(#paint81_linear)"/>
<path fill-rule="evenodd" clip-rule="evenodd" d="M926.948 215.392L915.73 213.225C909.547 212.159 908.159 220.685 908.635 225.02C909.785 235.287 908.556 248.182 908.397 257.171C909.983 257.881 911.33 257.917 912.242 256.957C913.946 243.813 910.974 231.059 917.316 216.032C923.063 220.437 920.368 216.174 926.948 215.392Z" fill="url(#paint82_linear)"/>
<path fill-rule="evenodd" clip-rule="evenodd" d="M925.798 210.916C925.798 210.916 926.076 213.616 926.948 215.392C927.384 220.081 918.148 223.492 916.919 218.767C916.919 218.767 917.791 214.113 917.316 212.514L925.798 210.916Z" fill="url(#paint83_linear)"/>
<path fill-rule="evenodd" clip-rule="evenodd" d="M927.106 209.139C926.274 211.484 923.975 212.976 921.795 214.326C921.597 214.433 921.398 214.575 921.161 214.646C920.923 214.681 920.685 214.681 920.487 214.646C919.535 214.539 918.544 214.468 917.593 214.362C917.078 214.326 916.523 214.255 916.166 213.935C915.889 213.722 915.77 213.403 915.651 213.083C915.136 211.839 914.62 210.596 914.541 209.282C914.501 208.678 914.541 208.038 914.462 207.434C914.383 206.688 914.105 205.978 913.986 205.232C913.828 203.953 914.66 201.75 915.215 200.542C916.88 196.99 921.953 195.462 926.234 199.157C929.405 201.892 929.722 203.811 927.106 209.139Z" fill="url(#paint84_linear)"/>
<path fill-rule="evenodd" clip-rule="evenodd" d="M926.551 210.241C926.551 210.241 925.996 210.418 925.759 209.886C925.521 209.353 927.186 208.216 927.225 207.257C927.265 206.297 927.503 204.592 926.155 205.196L925.64 205.516C925.204 205.8 924.609 205.409 924.768 204.947C925.005 204.237 925.124 203.455 924.887 202.922C924.411 201.892 919.892 203.136 918.981 203.171C916.325 203.278 911.212 202.247 913.233 198.801C914.541 196.563 917.118 195.249 919.813 195.355C920.844 195.391 921.874 195.462 922.905 195.569C924.213 195.711 925.521 195.888 926.631 196.492C927.74 197.096 928.573 198.269 928.335 199.405C929.049 199.263 929.802 199.761 930.119 200.365C931.427 202.994 929.841 209.139 926.551 210.241Z" fill="url(#paint85_linear)"/>
<path fill-rule="evenodd" clip-rule="evenodd" d="M926.948 215.392L934.36 219.478L931.625 245.66C930.832 253.192 935.827 253.973 936.223 260.759C931.268 263.672 926.393 265.91 921.795 262.748C920.09 247.365 919.456 238.697 920.289 234.434C921.716 227.506 924.768 221.716 926.948 215.392Z" fill="url(#paint86_linear)"/>
<path fill-rule="evenodd" clip-rule="evenodd" d="M932.933 219.513C935.193 219.549 936.778 221.218 938.165 222.852C939.989 225.02 941.614 227.293 943.041 229.709C943.834 231.094 944.626 232.551 945.934 233.546C947.52 234.718 949.66 235.109 951.682 235.429C954.972 235.961 958.301 236.494 961.591 237.027C961.353 238.768 960.957 240.509 960.402 242.214C954.536 241.361 948.194 242.285 942.843 239.905C939.196 238.271 936.58 235.286 934.083 232.373C932.854 230.952 931.189 230.206 930.396 228.537C929.445 226.512 929.326 224.096 929.802 221.964C930 221.005 930.515 219.939 931.546 219.691C932.061 219.549 932.497 219.513 932.933 219.513Z" fill="url(#paint87_linear)"/>
<path fill-rule="evenodd" clip-rule="evenodd" d="M992.469 302.572L941.534 329.11L890.6 355.648C862.298 341.011 862.14 317.245 890.243 302.572C918.386 287.936 964.128 287.936 992.469 302.572Z" fill="#D8ECFA"/>
<path fill-rule="evenodd" clip-rule="evenodd" d="M813.345 270.351C813.028 271.132 812.592 271.878 812.077 272.553C814.693 272.304 816.12 270.173 818.657 269.498C818.815 269.676 818.895 269.924 818.815 270.173C819.37 270.137 819.965 270.173 820.48 270.315C819.608 271.878 818.379 273.299 816.913 274.436C816.398 274.827 815.843 275.182 815.248 275.395C813.702 275.857 809.421 276.674 808.866 274.898C808.074 272.162 812.672 271.949 813.345 270.351Z" fill="url(#paint88_linear)"/>
<path fill-rule="evenodd" clip-rule="evenodd" d="M862.417 329.608C860.356 329.892 858.691 331.739 856.669 332.343C857.462 331.277 858.295 330.176 859.087 329.11C858.136 328.933 857.264 329.572 856.669 330.212C855.758 331.171 855.084 332.308 854.688 333.551C854.569 333.942 854.45 334.404 854.569 334.794C854.965 336.038 857.105 336.606 858.334 336.784C861.228 337.21 864.716 334.084 864.875 331.171C865.033 328.258 864.438 329.359 862.417 329.608Z" fill="url(#paint89_linear)"/>
<path fill-rule="evenodd" clip-rule="evenodd" d="M831.698 406.059L838.833 398.883C841.687 398.137 844.659 397.995 844.303 400.34C843.946 402.436 840.26 403.359 837.683 405.384L835.345 407.267C833.64 408.617 831.46 407.445 831.698 406.059Z" fill="url(#paint90_linear)"/>
<path fill-rule="evenodd" clip-rule="evenodd" d="M865.509 410.358C866.341 412.88 865.192 413.484 864.201 414.23C863.527 414.763 862.734 415.26 861.823 415.474C859.286 416.078 856.511 416.078 853.657 415.935C852.944 415.9 852.666 416.681 851.993 416.753C850.328 416.895 848.227 416.93 846.681 416.255V415.154C848.227 415.829 850.328 415.793 851.993 415.651C855.917 415.332 861.228 415.722 864.201 413.449C864.875 412.951 865.351 411.068 865.509 410.358Z" fill="url(#paint91_linear)"/>
<path fill-rule="evenodd" clip-rule="evenodd" d="M861.585 339.448C863.012 338.667 864.914 336.89 865.548 335.505C866.103 334.297 866.658 333.054 866.698 331.739C866.777 330.567 866.46 329.395 865.786 328.4C865.747 328.329 865.667 328.222 865.588 328.187C865.271 328.009 864.875 328.329 864.676 328.648C863.487 330.318 862.457 332.201 860.95 333.693C861.03 333.125 861.307 332.45 861.585 331.917C862.06 331.029 861.228 331.064 861.228 331.064C860.673 331.384 859.048 333.729 858.85 334.581C858.612 335.434 858.057 337.672 858.057 337.672L858.374 337.921C858.136 338.24 857.978 338.418 857.978 338.418C857.938 338.383 860.594 339.981 861.585 339.448Z" fill="url(#paint92_linear)"/>
<path fill-rule="evenodd" clip-rule="evenodd" d="M831.738 318.843C831.738 318.843 821.551 322.183 829.478 331.597L831.738 318.843Z" fill="url(#paint93_linear)"/>
<path fill-rule="evenodd" clip-rule="evenodd" d="M838.159 300.334C840.339 300.015 843.351 299.943 845.452 300.512C849.02 301.471 850.962 303.496 851.834 306.516C852.706 309.571 852.944 314.651 851.002 317.493C849.773 319.27 847.077 318.95 845.135 318.488C842.796 317.92 839.705 317.031 837.802 315.717C835.107 313.905 833.719 309.926 833.561 307.049C833.363 304.597 834.79 300.832 838.159 300.334Z" fill="url(#paint94_linear)"/>
<path fill-rule="evenodd" clip-rule="evenodd" d="M838.119 315.078C838.397 315.362 838.714 315.61 839.031 315.824C840.973 317.138 842.796 317.92 845.135 318.488C845.492 318.559 845.928 318.666 846.324 318.737L846.126 320.655C843.629 321.259 841.211 320.335 839.506 319.909C838.238 319.589 836.216 319.305 836.216 318.097L838.119 315.078Z" fill="url(#paint95_linear)"/>
<path fill-rule="evenodd" clip-rule="evenodd" d="M853.499 300.299C853.499 300.299 850.685 301.436 846.404 299.872C844.224 299.055 838.159 299.268 836.455 300.938C834.314 302.217 833.403 305.059 833.521 307.049C833.68 309.926 835.107 313.905 837.763 315.717C839.229 316.712 839.309 316.818 841.29 317.387C841.845 317.138 844.739 315.113 844.739 315.113C843.629 314.545 842.757 311.205 843.946 310.601C845.135 310.033 845.928 312.093 845.928 312.093C846.602 311.88 847.672 311.17 847.078 309.926C846.483 308.683 847.078 307.404 847.078 307.404C849.178 307.439 850.922 306.374 851.596 306.018C851.636 306.054 854.49 304.278 853.499 300.299Z" fill="url(#paint96_linear)"/>
<path fill-rule="evenodd" clip-rule="evenodd" d="M853.261 408.688C853.261 408.688 854.45 410.465 856.194 409.47C856.749 409.15 862.576 409.008 863.646 409.257C864.161 409.363 865.231 409.683 865.43 410.145C866.024 411.459 865.271 412.596 864.201 413.449C861.268 415.722 855.917 415.332 851.992 415.651C850.288 415.793 848.227 415.829 846.681 415.154C846.681 415.154 846.403 409.754 847.157 409.008L853.261 408.688Z" fill="url(#paint97_linear)"/>
<path fill-rule="evenodd" clip-rule="evenodd" d="M835.305 407.267L837.643 405.384C840.18 403.359 843.906 402.436 844.263 400.34C844.303 400.553 844.303 400.766 844.263 401.05C843.906 403.146 840.22 404.07 837.643 406.095L835.305 407.978C833.323 409.576 831.222 408.439 831.658 406.095C831.46 407.445 833.64 408.617 835.305 407.267Z" fill="url(#paint98_linear)"/>
<path fill-rule="evenodd" clip-rule="evenodd" d="M833.283 351.989C830.826 355.115 834.988 369.752 832.332 379.486C830.35 386.662 829.716 395.934 830.984 405.846C831.658 406.947 838.119 406.308 840.299 400.375C839.427 389.469 842.519 384.282 843.669 376.218L844.263 353.126L833.283 351.989Z" fill="url(#paint99_linear)"/>
<path fill-rule="evenodd" clip-rule="evenodd" d="M839.586 356.146C838.912 365.844 848.267 379.735 845.849 386.84C843.233 394.584 845.888 404.319 845.928 413.058C845.928 413.058 853.221 413.662 857.145 409.79C852.508 392.56 861.545 375.614 856.63 356.572L839.586 356.146Z" fill="url(#paint100_linear)"/>
<path fill-rule="evenodd" clip-rule="evenodd" d="M854.252 345.488C854.53 335.825 852.508 326.268 852.508 326.268C851.557 325.025 850.368 323.923 848.98 323.035L846.325 320.158C842.955 319.412 839.665 318.524 836.455 317.458L833.244 318.701L831.659 318.772C830.232 318.843 826.466 324.776 828.21 329.252C828.17 329.466 833.839 338.951 834.275 342.752C834.314 343.107 835.028 348.01 832.768 351.705C832.768 351.705 832.967 352.699 833.759 353.268C839.547 359.698 854.649 359.059 854.886 357.531C856.313 357.389 856.551 355.968 856.551 354.831C856.71 353.481 854.252 345.488 854.252 345.488Z" fill="#C3D8E4"/>
<path fill-rule="evenodd" clip-rule="evenodd" d="M858.334 337.21L855.362 342.29C855.362 342.29 856.115 335.15 856.115 332.84C856.115 331.526 854.926 329.572 853.935 328.151C853.063 326.943 851.279 326.517 849.892 327.263C845.888 329.323 846.562 332.769 846.562 332.769L848.465 349.04C848.702 351.278 851.279 353.126 853.538 352.096C858.057 350.071 859.008 344.138 861.942 339.306C861.585 336.997 858.85 337.068 858.334 337.21Z" fill="url(#paint101_linear)"/>
<path fill-rule="evenodd" clip-rule="evenodd" d="M884.059 336.002L895.752 342.823L908.793 334.795L899.558 329.359L884.059 336.002Z" fill="url(#paint102_linear)"/>
<path fill-rule="evenodd" clip-rule="evenodd" d="M882.751 336.216L893.097 339.839L904.592 330.105L894.524 326.02L882.751 336.216Z" fill="white"/>
<defs>
<linearGradient id="paint0_linear" x1="1278.5" y1="0" x2="793.731" y2="1001.31" gradientUnits="userSpaceOnUse">
<stop stop-color="#96BCD1"/>
<stop offset="0.55" stop-color="#F9FAFB"/>
<stop offset="1" stop-color="#FDFDFD"/>
</linearGradient>
<linearGradient id="paint1_linear" x1="1238.93" y1="257.829" x2="992.316" y2="934.329" gradientUnits="userSpaceOnUse">
<stop stop-color="#4CC7FF" stop-opacity="0.149"/>
<stop offset="1" stop-color="#2595FF" stop-opacity="0.149"/>
</linearGradient>
<linearGradient id="paint2_linear" x1="734.437" y1="376.869" x2="1187.18" y2="376.869" gradientUnits="userSpaceOnUse">
<stop offset="0.125" stop-color="#A2A2A2"/>
<stop offset="1" stop-color="#EFEFEF"/>
</linearGradient>
<linearGradient id="paint3_linear" x1="1147.71" y1="331.19" x2="1164.13" y2="331.19" gradientUnits="userSpaceOnUse">
<stop offset="0.125" stop-color="#A2A2A2"/>
<stop offset="1" stop-color="#EFEFEF"/>
</linearGradient>
<linearGradient id="paint4_linear" x1="1136.14" y1="325.206" x2="1152.56" y2="325.206" gradientUnits="userSpaceOnUse">
<stop offset="0.125" stop-color="#A2A2A2"/>
<stop offset="1" stop-color="#EFEFEF"/>
</linearGradient>
<linearGradient id="paint5_linear" x1="1124.58" y1="319.222" x2="1141" y2="319.222" gradientUnits="userSpaceOnUse">
<stop offset="0.125" stop-color="#A2A2A2"/>
<stop offset="1" stop-color="#EFEFEF"/>
</linearGradient>
<linearGradient id="paint6_linear" x1="1113.02" y1="313.238" x2="1129.44" y2="313.238" gradientUnits="userSpaceOnUse">
<stop offset="0.125" stop-color="#A2A2A2"/>
<stop offset="1" stop-color="#EFEFEF"/>
</linearGradient>
<linearGradient id="paint7_linear" x1="1101.45" y1="307.255" x2="1117.87" y2="307.255" gradientUnits="userSpaceOnUse">
<stop offset="0.125" stop-color="#A2A2A2"/>
<stop offset="1" stop-color="#EFEFEF"/>
</linearGradient>
<linearGradient id="paint8_linear" x1="1089.89" y1="301.271" x2="1106.31" y2="301.271" gradientUnits="userSpaceOnUse">
<stop offset="0.125" stop-color="#A2A2A2"/>
<stop offset="1" stop-color="#EFEFEF"/>
</linearGradient>
<linearGradient id="paint9_linear" x1="1078.33" y1="295.287" x2="1094.75" y2="295.287" gradientUnits="userSpaceOnUse">
<stop offset="0.125" stop-color="#A2A2A2"/>
<stop offset="1" stop-color="#EFEFEF"/>
</linearGradient>
<linearGradient id="paint10_linear" x1="1066.77" y1="289.304" x2="1083.18" y2="289.304" gradientUnits="userSpaceOnUse">
<stop offset="0.125" stop-color="#A2A2A2"/>
<stop offset="1" stop-color="#EFEFEF"/>
</linearGradient>
<linearGradient id="paint11_linear" x1="1055.2" y1="283.32" x2="1071.62" y2="283.32" gradientUnits="userSpaceOnUse">
<stop offset="0.125" stop-color="#A2A2A2"/>
<stop offset="1" stop-color="#EFEFEF"/>
</linearGradient>
<linearGradient id="paint12_linear" x1="1043.64" y1="277.336" x2="1060.06" y2="277.336" gradientUnits="userSpaceOnUse">
<stop offset="0.125" stop-color="#A2A2A2"/>
<stop offset="1" stop-color="#EFEFEF"/>
</linearGradient>
<linearGradient id="paint13_linear" x1="1032.08" y1="271.352" x2="1048.5" y2="271.352" gradientUnits="userSpaceOnUse">
<stop offset="0.125" stop-color="#A2A2A2"/>
<stop offset="1" stop-color="#EFEFEF"/>
</linearGradient>
<linearGradient id="paint14_linear" x1="1020.51" y1="265.369" x2="1036.93" y2="265.369" gradientUnits="userSpaceOnUse">
<stop offset="0.125" stop-color="#A2A2A2"/>
<stop offset="1" stop-color="#EFEFEF"/>
</linearGradient>
<linearGradient id="paint15_linear" x1="1008.95" y1="259.385" x2="1025.37" y2="259.385" gradientUnits="userSpaceOnUse">
<stop offset="0.125" stop-color="#A2A2A2"/>
<stop offset="1" stop-color="#EFEFEF"/>
</linearGradient>
<linearGradient id="paint16_linear" x1="997.387" y1="253.401" x2="1013.81" y2="253.401" gradientUnits="userSpaceOnUse">
<stop offset="0.125" stop-color="#A2A2A2"/>
<stop offset="1" stop-color="#EFEFEF"/>
</linearGradient>
<linearGradient id="paint17_linear" x1="984.112" y1="303.05" x2="1138.03" y2="303.05" gradientUnits="userSpaceOnUse">
<stop offset="0.125" stop-color="#A2A2A2"/>
<stop offset="1" stop-color="#EFEFEF"/>
</linearGradient>
<linearGradient id="paint18_linear" x1="973.279" y1="308.655" x2="1127.2" y2="308.655" gradientUnits="userSpaceOnUse">
<stop offset="0.125" stop-color="#A2A2A2"/>
<stop offset="1" stop-color="#EFEFEF"/>
</linearGradient>
<linearGradient id="paint19_linear" x1="962.447" y1="314.26" x2="1116.37" y2="314.26" gradientUnits="userSpaceOnUse">
<stop offset="0.125" stop-color="#A2A2A2"/>
<stop offset="1" stop-color="#EFEFEF"/>
</linearGradient>
<linearGradient id="paint20_linear" x1="951.614" y1="319.866" x2="1105.53" y2="319.866" gradientUnits="userSpaceOnUse">
<stop offset="0.125" stop-color="#A2A2A2"/>
<stop offset="1" stop-color="#EFEFEF"/>
</linearGradient>
<linearGradient id="paint21_linear" x1="940.781" y1="325.471" x2="1094.7" y2="325.471" gradientUnits="userSpaceOnUse">
<stop offset="0.125" stop-color="#A2A2A2"/>
<stop offset="1" stop-color="#EFEFEF"/>
</linearGradient>
<linearGradient id="paint22_linear" x1="929.949" y1="331.077" x2="1083.87" y2="331.077" gradientUnits="userSpaceOnUse">
<stop offset="0.125" stop-color="#A2A2A2"/>
<stop offset="1" stop-color="#EFEFEF"/>
</linearGradient>
<linearGradient id="paint23_linear" x1="919.116" y1="336.682" x2="1073.04" y2="336.682" gradientUnits="userSpaceOnUse">
<stop offset="0.125" stop-color="#A2A2A2"/>
<stop offset="1" stop-color="#EFEFEF"/>
</linearGradient>
<linearGradient id="paint24_linear" x1="908.283" y1="342.288" x2="1062.2" y2="342.288" gradientUnits="userSpaceOnUse">
<stop offset="0.125" stop-color="#A2A2A2"/>
<stop offset="1" stop-color="#EFEFEF"/>
</linearGradient>
<linearGradient id="paint25_linear" x1="897.451" y1="347.893" x2="1051.37" y2="347.893" gradientUnits="userSpaceOnUse">
<stop offset="0.125" stop-color="#A2A2A2"/>
<stop offset="1" stop-color="#EFEFEF"/>
</linearGradient>
<linearGradient id="paint26_linear" x1="886.618" y1="353.498" x2="1040.54" y2="353.498" gradientUnits="userSpaceOnUse">
<stop offset="0.125" stop-color="#A2A2A2"/>
<stop offset="1" stop-color="#EFEFEF"/>
</linearGradient>
<linearGradient id="paint27_linear" x1="875.785" y1="359.104" x2="1029.7" y2="359.104" gradientUnits="userSpaceOnUse">
<stop offset="0.125" stop-color="#A2A2A2"/>
<stop offset="1" stop-color="#EFEFEF"/>
</linearGradient>
<linearGradient id="paint28_linear" x1="854.12" y1="370.315" x2="1008.04" y2="370.315" gradientUnits="userSpaceOnUse">
<stop offset="0.125" stop-color="#A2A2A2"/>
<stop offset="1" stop-color="#EFEFEF"/>
</linearGradient>
<linearGradient id="paint29_linear" x1="832.454" y1="381.525" x2="986.373" y2="381.525" gradientUnits="userSpaceOnUse">
<stop offset="0.125" stop-color="#A2A2A2"/>
<stop offset="1" stop-color="#EFEFEF"/>
</linearGradient>
<linearGradient id="paint30_linear" x1="821.622" y1="387.131" x2="975.541" y2="387.131" gradientUnits="userSpaceOnUse">
<stop offset="0.125" stop-color="#A2A2A2"/>
<stop offset="1" stop-color="#EFEFEF"/>
</linearGradient>
<linearGradient id="paint31_linear" x1="810.789" y1="392.736" x2="964.708" y2="392.736" gradientUnits="userSpaceOnUse">
<stop offset="0.125" stop-color="#A2A2A2"/>
<stop offset="1" stop-color="#EFEFEF"/>
</linearGradient>
<linearGradient id="paint32_linear" x1="799.956" y1="398.342" x2="953.875" y2="398.342" gradientUnits="userSpaceOnUse">
<stop offset="0.125" stop-color="#A2A2A2"/>
<stop offset="1" stop-color="#EFEFEF"/>
</linearGradient>
<linearGradient id="paint33_linear" x1="789.124" y1="403.947" x2="943.042" y2="403.947" gradientUnits="userSpaceOnUse">
<stop offset="0.125" stop-color="#A2A2A2"/>
<stop offset="1" stop-color="#EFEFEF"/>
</linearGradient>
<linearGradient id="paint34_linear" x1="778.291" y1="409.553" x2="932.21" y2="409.553" gradientUnits="userSpaceOnUse">
<stop offset="0.125" stop-color="#A2A2A2"/>
<stop offset="1" stop-color="#EFEFEF"/>
</linearGradient>
<linearGradient id="paint35_linear" x1="1031.23" y1="263.093" x2="1072.37" y2="263.093" gradientUnits="userSpaceOnUse">
<stop stop-color="#3D0EAE"/>
<stop offset="1" stop-color="#7756E5"/>
</linearGradient>
<linearGradient id="paint36_linear" x1="1045.49" y1="237.598" x2="1059.15" y2="237.598" gradientUnits="userSpaceOnUse">
<stop stop-color="#3D0EAE"/>
<stop offset="1" stop-color="#7756E5"/>
</linearGradient>
<linearGradient id="paint37_linear" x1="1058.38" y1="236.923" x2="1061.82" y2="236.518" gradientUnits="userSpaceOnUse">
<stop stop-color="#3D0EAE"/>
<stop offset="1" stop-color="#7756E5"/>
</linearGradient>
<linearGradient id="paint38_linear" x1="1050.17" y1="164.266" x2="1053.72" y2="164.266" gradientUnits="userSpaceOnUse">
<stop offset="0.125" stop-color="#A2A2A2"/>
<stop offset="1" stop-color="#EFEFEF"/>
</linearGradient>
<linearGradient id="paint39_linear" x1="988.683" y1="262.291" x2="1132.87" y2="262.291" gradientUnits="userSpaceOnUse">
<stop offset="0.125" stop-color="#A2A2A2"/>
<stop offset="1" stop-color="#EFEFEF"/>
</linearGradient>
<linearGradient id="paint40_linear" x1="1056.53" y1="268.273" x2="1058.69" y2="264.156" gradientUnits="userSpaceOnUse">
<stop offset="0.125" stop-color="#A2A2A2"/>
<stop offset="1" stop-color="#EFEFEF"/>
</linearGradient>
<linearGradient id="paint41_linear" x1="1127.58" y1="302.474" x2="1133.77" y2="302.474" gradientUnits="userSpaceOnUse">
<stop offset="0.125" stop-color="#A2A2A2"/>
<stop offset="1" stop-color="#EFEFEF"/>
</linearGradient>
<linearGradient id="paint42_linear" x1="992.893" y1="220.797" x2="1126.52" y2="220.797" gradientUnits="userSpaceOnUse">
<stop stop-color="#3D0EAE"/>
<stop offset="1" stop-color="#7756E5"/>
</linearGradient>
<linearGradient id="paint43_linear" x1="987.397" y1="175.579" x2="1130.68" y2="175.579" gradientUnits="userSpaceOnUse">
<stop offset="0.125" stop-color="#A2A2A2"/>
<stop offset="1" stop-color="#EFEFEF"/>
</linearGradient>
<linearGradient id="paint44_linear" x1="988.917" y1="176.25" x2="1131.08" y2="176.25" gradientUnits="userSpaceOnUse">
<stop offset="0.125" stop-color="#A2A2A2"/>
<stop offset="1" stop-color="#EFEFEF"/>
</linearGradient>
<linearGradient id="paint45_linear" x1="1030.58" y1="309.147" x2="1051.84" y2="309.147" gradientUnits="userSpaceOnUse">
<stop stop-color="#3D0EAE"/>
<stop offset="1" stop-color="#7756E5"/>
</linearGradient>
<linearGradient id="paint46_linear" x1="1050.57" y1="301.156" x2="1069.75" y2="301.156" gradientUnits="userSpaceOnUse">
<stop stop-color="#3D0EAE"/>
<stop offset="1" stop-color="#7756E5"/>
</linearGradient>
<linearGradient id="paint47_linear" x1="867.406" y1="366.13" x2="1047.29" y2="366.13" gradientUnits="userSpaceOnUse">
<stop offset="0.125" stop-color="#A2A2A2"/>
<stop offset="1" stop-color="#EFEFEF"/>
</linearGradient>
<linearGradient id="paint48_linear" x1="1011.68" y1="382.003" x2="831.325" y2="382.003" gradientUnits="userSpaceOnUse">
<stop stop-color="#FF8200"/>
<stop offset="1" stop-color="#FFC500"/>
</linearGradient>
<linearGradient id="paint49_linear" x1="992.348" y1="394.965" x2="940.517" y2="337.134" gradientUnits="userSpaceOnUse">
<stop stop-color="#FF8200"/>
<stop offset="1" stop-color="#FFC500"/>
</linearGradient>
<linearGradient id="paint50_linear" x1="753.488" y1="306.898" x2="924.96" y2="306.898" gradientUnits="userSpaceOnUse">
<stop offset="0.125" stop-color="#A2A2A2"/>
<stop offset="1" stop-color="#EFEFEF"/>
</linearGradient>
<linearGradient id="paint51_linear" x1="944.411" y1="159.799" x2="894.948" y2="159.799" gradientUnits="userSpaceOnUse">
<stop stop-color="#FF8200"/>
<stop offset="1" stop-color="#FFC500"/>
</linearGradient>
<linearGradient id="paint52_linear" x1="896.541" y1="224.106" x2="919.347" y2="224.106" gradientUnits="userSpaceOnUse">
<stop stop-color="#FF8200"/>
<stop offset="1" stop-color="#FFC500"/>
</linearGradient>
<linearGradient id="paint53_linear" x1="897.141" y1="224.106" x2="865.125" y2="224.106" gradientUnits="userSpaceOnUse">
<stop stop-color="#FF8200"/>
<stop offset="1" stop-color="#FFC500"/>
</linearGradient>
<linearGradient id="paint54_linear" x1="926.23" y1="191.367" x2="864.832" y2="191.367" gradientUnits="userSpaceOnUse">
<stop stop-color="#3D0EAE"/>
<stop offset="0.56" stop-color="#7756E5"/>
<stop offset="1" stop-color="#A0A2FF"/>
</linearGradient>
<linearGradient id="paint55_linear" x1="884.415" y1="232.166" x2="840.744" y2="232.166" gradientUnits="userSpaceOnUse">
<stop stop-color="#3D0EAE"/>
<stop offset="0.56" stop-color="#7756E5"/>
<stop offset="1" stop-color="#A0A2FF"/>
</linearGradient>
<linearGradient id="paint56_linear" x1="851.571" y1="274.294" x2="816.406" y2="267.844" gradientUnits="userSpaceOnUse">
<stop stop-color="#3D0EAE"/>
<stop offset="0.56" stop-color="#7756E5"/>
<stop offset="1" stop-color="#A0A2FF"/>
</linearGradient>
<linearGradient id="paint57_linear" x1="861.567" y1="226.802" x2="816.631" y2="226.802" gradientUnits="userSpaceOnUse">
<stop stop-color="#3D0EAE"/>
<stop offset="0.56" stop-color="#7756E5"/>
<stop offset="1" stop-color="#A0A2FF"/>
</linearGradient>
<linearGradient id="paint58_linear" x1="834.964" y1="287.459" x2="799.18" y2="287.459" gradientUnits="userSpaceOnUse">
<stop stop-color="#3D0EAE"/>
<stop offset="0.56" stop-color="#7756E5"/>
<stop offset="1" stop-color="#A0A2FF"/>
</linearGradient>
<linearGradient id="paint59_linear" x1="834.964" y1="315.637" x2="769.498" y2="315.637" gradientUnits="userSpaceOnUse">
<stop stop-color="#3D0EAE"/>
<stop offset="0.56" stop-color="#7756E5"/>
<stop offset="1" stop-color="#A0A2FF"/>
</linearGradient>
<linearGradient id="paint60_linear" x1="1070.5" y1="244.895" x2="1070.5" y2="196.593" gradientUnits="userSpaceOnUse">
<stop stop-color="#FF8200"/>
<stop offset="1" stop-color="#FFC500"/>
</linearGradient>
<linearGradient id="paint61_linear" x1="840.962" y1="240.407" x2="853.273" y2="240.407" gradientUnits="userSpaceOnUse">
<stop stop-color="#FF8200"/>
<stop offset="1" stop-color="#FFC500"/>
</linearGradient>
<linearGradient id="paint62_linear" x1="799.384" y1="245.781" x2="843.468" y2="245.781" gradientUnits="userSpaceOnUse">
<stop stop-color="#3D0EAE"/>
<stop offset="1" stop-color="#7756E5"/>
</linearGradient>
<linearGradient id="paint63_linear" x1="809.97" y1="329.083" x2="819.765" y2="329.083" gradientUnits="userSpaceOnUse">
<stop stop-color="#130E3E"/>
<stop offset="1" stop-color="#543DAB"/>
</linearGradient>
<linearGradient id="paint64_linear" x1="822.706" y1="320.391" x2="841.176" y2="320.391" gradientUnits="userSpaceOnUse">
<stop stop-color="#130E3E"/>
<stop offset="1" stop-color="#543DAB"/>
</linearGradient>
<linearGradient id="paint65_linear" x1="811.617" y1="301.609" x2="816.384" y2="285.652" gradientUnits="userSpaceOnUse">
<stop stop-color="#130E3E"/>
<stop offset="1" stop-color="#543DAB"/>
</linearGradient>
<linearGradient id="paint66_linear" x1="801.554" y1="301.075" x2="805.879" y2="279.796" gradientUnits="userSpaceOnUse">
<stop stop-color="#130E3E"/>
<stop offset="1" stop-color="#543DAB"/>
</linearGradient>
<linearGradient id="paint67_linear" x1="797.943" y1="265.086" x2="785.193" y2="248.548" gradientUnits="userSpaceOnUse">
<stop stop-color="#3D0EAE"/>
<stop offset="1" stop-color="#7756E5"/>
</linearGradient>
<linearGradient id="paint68_linear" x1="792.825" y1="252.822" x2="800.812" y2="252.822" gradientUnits="userSpaceOnUse">
<stop offset="0.125" stop-color="#A2A2A2"/>
<stop offset="1" stop-color="#EFEFEF"/>
</linearGradient>
<linearGradient id="paint69_linear" x1="791.668" y1="244.744" x2="800.615" y2="244.744" gradientUnits="userSpaceOnUse">
<stop stop-color="#FF8200"/>
<stop offset="1" stop-color="#FFC500"/>
</linearGradient>
<linearGradient id="paint70_linear" x1="787.121" y1="236.28" x2="803.441" y2="233.984" gradientUnits="userSpaceOnUse">
<stop stop-color="#FF8200"/>
<stop offset="1" stop-color="#FFC500"/>
</linearGradient>
<linearGradient id="paint71_linear" x1="785.187" y1="232.459" x2="803.279" y2="232.459" gradientUnits="userSpaceOnUse">
<stop stop-color="#130E3E"/>
<stop offset="1" stop-color="#543DAB"/>
</linearGradient>
<linearGradient id="paint72_linear" x1="809.042" y1="266.789" x2="780.305" y2="261.747" gradientUnits="userSpaceOnUse">
<stop stop-color="#3D0EAE"/>
<stop offset="1" stop-color="#7756E5"/>
</linearGradient>
<linearGradient id="paint73_linear" x1="913.333" y1="204.007" x2="917.102" y2="204.007" gradientUnits="userSpaceOnUse">
<stop stop-color="#130E3E"/>
<stop offset="1" stop-color="#543DAB"/>
</linearGradient>
<linearGradient id="paint74_linear" x1="958.686" y1="239.516" x2="974.743" y2="239.516" gradientUnits="userSpaceOnUse">
<stop stop-color="#FF8200"/>
<stop offset="1" stop-color="#FFC500"/>
</linearGradient>
<linearGradient id="paint75_linear" x1="879.541" y1="236.074" x2="892.499" y2="236.074" gradientUnits="userSpaceOnUse">
<stop stop-color="#FF8200"/>
<stop offset="1" stop-color="#FFC500"/>
</linearGradient>
<linearGradient id="paint76_linear" x1="890.965" y1="225.906" x2="916.829" y2="225.906" gradientUnits="userSpaceOnUse">
<stop stop-color="#3D0EAE"/>
<stop offset="1" stop-color="#7756E5"/>
</linearGradient>
<linearGradient id="paint77_linear" x1="925.653" y1="315.379" x2="934.337" y2="315.379" gradientUnits="userSpaceOnUse">
<stop stop-color="#130E3E"/>
<stop offset="1" stop-color="#543DAB"/>
</linearGradient>
<linearGradient id="paint78_linear" x1="906.671" y1="308.203" x2="923.046" y2="308.203" gradientUnits="userSpaceOnUse">
<stop stop-color="#130E3E"/>
<stop offset="1" stop-color="#543DAB"/>
</linearGradient>
<linearGradient id="paint79_linear" x1="909.879" y1="277.661" x2="923.258" y2="277.661" gradientUnits="userSpaceOnUse">
<stop stop-color="#130E3E"/>
<stop offset="1" stop-color="#543DAB"/>
</linearGradient>
<linearGradient id="paint80_linear" x1="919.41" y1="283.661" x2="935.006" y2="283.661" gradientUnits="userSpaceOnUse">
<stop stop-color="#130E3E"/>
<stop offset="1" stop-color="#543DAB"/>
</linearGradient>
<linearGradient id="paint81_linear" x1="919.144" y1="259.395" x2="919.144" y2="237.338" gradientUnits="userSpaceOnUse">
<stop offset="0.125" stop-color="#A2A2A2"/>
<stop offset="1" stop-color="#EFEFEF"/>
</linearGradient>
<linearGradient id="paint82_linear" x1="908.403" y1="235.413" x2="926.962" y2="235.413" gradientUnits="userSpaceOnUse">
<stop stop-color="#3D0EAE"/>
<stop offset="1" stop-color="#7756E5"/>
</linearGradient>
<linearGradient id="paint83_linear" x1="916.924" y1="215.975" x2="926.978" y2="215.975" gradientUnits="userSpaceOnUse">
<stop stop-color="#FF8200"/>
<stop offset="1" stop-color="#FFC500"/>
</linearGradient>
<linearGradient id="paint84_linear" x1="913.896" y1="205.818" x2="928.853" y2="205.818" gradientUnits="userSpaceOnUse">
<stop stop-color="#FF8200"/>
<stop offset="1" stop-color="#FFC500"/>
</linearGradient>
<linearGradient id="paint85_linear" x1="912.807" y1="202.788" x2="930.598" y2="202.788" gradientUnits="userSpaceOnUse">
<stop stop-color="#130E3E"/>
<stop offset="1" stop-color="#543DAB"/>
</linearGradient>
<linearGradient id="paint86_linear" x1="919.963" y1="239.825" x2="936.25" y2="239.825" gradientUnits="userSpaceOnUse">
<stop stop-color="#3D0EAE"/>
<stop offset="1" stop-color="#7756E5"/>
</linearGradient>
<linearGradient id="paint87_linear" x1="929.55" y1="230.855" x2="961.591" y2="230.855" gradientUnits="userSpaceOnUse">
<stop stop-color="#3D0EAE"/>
<stop offset="1" stop-color="#7756E5"/>
</linearGradient>
<linearGradient id="paint88_linear" x1="808.771" y1="272.714" x2="820.486" y2="272.714" gradientUnits="userSpaceOnUse">
<stop stop-color="#FF8200"/>
<stop offset="1" stop-color="#FFC500"/>
</linearGradient>
<linearGradient id="paint89_linear" x1="860.179" y1="329.828" x2="861.743" y2="318.155" gradientUnits="userSpaceOnUse">
<stop stop-color="#FF8200"/>
<stop offset="1" stop-color="#FFC500"/>
</linearGradient>
<linearGradient id="paint90_linear" x1="831.666" y1="403.14" x2="844.307" y2="403.14" gradientUnits="userSpaceOnUse">
<stop stop-color="#130E3E"/>
<stop offset="1" stop-color="#543DAB"/>
</linearGradient>
<linearGradient id="paint91_linear" x1="846.681" y1="413.6" x2="865.81" y2="413.6" gradientUnits="userSpaceOnUse">
<stop stop-color="#3D0EAE"/>
<stop offset="1" stop-color="#7756E5"/>
</linearGradient>
<linearGradient id="paint92_linear" x1="860.173" y1="339.943" x2="863.064" y2="331.156" gradientUnits="userSpaceOnUse">
<stop stop-color="#FF8200"/>
<stop offset="1" stop-color="#FFC500"/>
</linearGradient>
<linearGradient id="paint93_linear" x1="826.441" y1="325.202" x2="831.724" y2="325.202" gradientUnits="userSpaceOnUse">
<stop stop-color="#3D0EAE"/>
<stop offset="1" stop-color="#7756E5"/>
</linearGradient>
<linearGradient id="paint94_linear" x1="838.184" y1="313.758" x2="845.062" y2="306.815" gradientUnits="userSpaceOnUse">
<stop stop-color="#FF8200"/>
<stop offset="1" stop-color="#FFC500"/>
</linearGradient>
<linearGradient id="paint95_linear" x1="836.216" y1="317.953" x2="846.31" y2="317.953" gradientUnits="userSpaceOnUse">
<stop stop-color="#FF8200"/>
<stop offset="1" stop-color="#FFC500"/>
</linearGradient>
<linearGradient id="paint96_linear" x1="833.514" y1="308.4" x2="853.693" y2="308.4" gradientUnits="userSpaceOnUse">
<stop stop-color="#130E3E"/>
<stop offset="1" stop-color="#543DAB"/>
</linearGradient>
<linearGradient id="paint97_linear" x1="846.634" y1="412.217" x2="865.647" y2="412.217" gradientUnits="userSpaceOnUse">
<stop stop-color="#130E3E"/>
<stop offset="1" stop-color="#543DAB"/>
</linearGradient>
<linearGradient id="paint98_linear" x1="831.616" y1="404.511" x2="844.306" y2="404.511" gradientUnits="userSpaceOnUse">
<stop stop-color="#3D0EAE"/>
<stop offset="1" stop-color="#7756E5"/>
</linearGradient>
<linearGradient id="paint99_linear" x1="830.321" y1="379.15" x2="844.223" y2="379.15" gradientUnits="userSpaceOnUse">
<stop stop-color="#130E3E"/>
<stop offset="1" stop-color="#543DAB"/>
</linearGradient>
<linearGradient id="paint100_linear" x1="839.568" y1="384.631" x2="858.164" y2="384.631" gradientUnits="userSpaceOnUse">
<stop stop-color="#130E3E"/>
<stop offset="1" stop-color="#543DAB"/>
</linearGradient>
<linearGradient id="paint101_linear" x1="846.524" y1="339.636" x2="861.933" y2="339.636" gradientUnits="userSpaceOnUse">
<stop stop-color="#3D0EAE"/>
<stop offset="1" stop-color="#7756E5"/>
</linearGradient>
<linearGradient id="paint102_linear" x1="884.051" y1="336.097" x2="908.778" y2="336.097" gradientUnits="userSpaceOnUse">
<stop offset="0.125" stop-color="#A2A2A2"/>
<stop offset="1" stop-color="#EFEFEF"/>
</linearGradient>
</defs>
</svg>
