<svg width="1280" height="604" viewBox="0 0 1280 604" fill="none" xmlns="http://www.w3.org/2000/svg">
<path fill-rule="evenodd" clip-rule="evenodd" d="M0.749023 539.412C0.749023 539.412 86.716 436.091 164.989 440.199C243.263 444.308 298.89 505.02 357.179 505.02C415.469 505.02 478.236 401.904 544.548 401.904C610.86 401.904 679.243 496.149 728.926 478.57C778.609 460.991 857.472 346.068 877.364 307.385C897.256 268.702 987.228 155.421 1102.3 130.178C1217.37 104.935 1264.3 54.0231 1280 9.0625V603.999H0.749023V539.412Z" fill="url(#paint0_linear)"/>
<path d="M0.749878 543.897C0.749878 543.897 86.7168 438.01 164.99 442.22C243.264 446.43 298.89 508.648 357.18 508.648C415.47 508.648 478.237 402.972 544.549 402.972C610.861 402.972 679.244 499.558 728.927 481.54C778.61 463.522 857.473 345.747 877.365 306.106C897.256 266.464 987.229 150.367 1102.3 124.493C1217.37 98.6203 1264.3 47.0187 1280 0.373047" stroke="#2595FF" stroke-width="3"/>
<path d="M100.69 462.07C103.634 462.07 106.021 459.476 106.021 456.276C106.021 453.077 103.634 450.483 100.69 450.483C97.7466 450.483 95.3602 453.077 95.3602 456.276C95.3602 459.476 97.7466 462.07 100.69 462.07Z" fill="#2A689A" stroke="#2595FF" stroke-width="2"/>
<path d="M341.216 509.862C344.16 509.862 346.546 507.269 346.546 504.069C346.546 500.87 344.16 498.276 341.216 498.276C338.272 498.276 335.886 500.87 335.886 504.069C335.886 507.269 338.272 509.862 341.216 509.862Z" fill="#2E6F9D" stroke="#2595FF" stroke-width="2"/>
<path d="M536.435 407.036C539.379 407.036 541.765 404.442 541.765 401.243C541.765 398.043 539.379 395.45 536.435 395.45C533.491 395.45 531.105 398.043 531.105 401.243C531.105 404.442 533.491 407.036 536.435 407.036Z" fill="#3275A2" stroke="#2595FF" stroke-width="2"/>
<path d="M728.323 485.242C731.266 485.242 733.653 482.648 733.653 479.449C733.653 476.249 731.266 473.656 728.323 473.656C725.379 473.656 722.992 476.249 722.992 479.449C722.992 482.648 725.379 485.242 728.323 485.242Z" fill="#32749A" stroke="#2595FF" stroke-width="2"/>
<path d="M899.555 274.52C902.499 274.52 904.886 271.926 904.886 268.727C904.886 265.527 902.499 262.934 899.555 262.934C896.612 262.934 894.225 265.527 894.225 268.727C894.225 271.926 896.612 274.52 899.555 274.52Z" fill="#347FAA" stroke="#2595FF" stroke-width="2"/>
<path d="M1160.84 109.586C1163.79 109.586 1166.17 106.992 1166.17 103.793C1166.17 100.594 1163.79 98 1160.84 98C1157.9 98 1155.51 100.594 1155.51 103.793C1155.51 106.992 1157.9 109.586 1160.84 109.586Z" fill="#34789C" stroke="#2595FF" stroke-width="2"/>
<defs>
<linearGradient id="paint0_linear" x1="1240.34" y1="114.961" x2="827.149" y2="951.518" gradientUnits="userSpaceOnUse">
<stop stop-color="#4CC7FF" stop-opacity="0.149"/>
<stop offset="1" stop-color="#2595FF" stop-opacity="0.149"/>
</linearGradient>
</defs>
</svg>
