<svg width="565" height="324" viewBox="0 0 565 324" fill="none" xmlns="http://www.w3.org/2000/svg">
<path d="M466.158 285.995H81.2921C70.7577 285.995 62.2231 276.788 62.2231 265.45V20.544C62.2231 9.19293 70.7577 -7.36743e-06 81.2921 -7.36743e-06H466.158C476.672 -7.36743e-06 485.226 9.19293 485.226 20.544V265.45C485.226 276.788 476.672 285.995 466.158 285.995Z" fill="#849AFD"/>
<path d="M83.6738 277.141C76.363 277.141 70.451 270.748 70.451 262.895V23.0879C70.451 15.2332 76.363 8.86449 83.6738 8.86449H463.774C471.076 8.86449 477.009 15.2332 477.009 23.0879V262.895C477.009 270.748 471.076 277.141 463.774 277.141H83.6738Z" fill="#CCE5F5"/>
<path d="M498.1 285.618H49.3711V298.098H498.1V285.618Z" fill="#738FF4"/>
<path d="M238.958 315.818H474.332L498.1 298.099H49.3711L73.1282 315.818H238.958Z" fill="#2144A5"/>
<path d="M565 316.877C565 320.786 438.51 324 282.504 324C126.478 324 0 320.786 0 316.877C0 312.933 126.478 309.754 282.504 309.754C438.51 309.754 565 312.933 565 316.877Z" fill="white"/>
<path d="M237.014 178.265H95.9131C95.9131 178.265 105.322 121.268 136.138 121.268C160.999 121.268 168.256 156.825 181.094 156.825C196.612 156.825 193.137 135.869 211.716 135.504C231.178 135.103 237.014 178.265 237.014 178.265Z" fill="#C5D4FF"/>
<path d="M241.045 179.301H91.8806V175.958H241.045V179.301Z" fill="#849AFD"/>
<path d="M96.9623 175.957H95.7275V94.2466H96.9623V175.957Z" fill="#849AFD"/>
<path d="M137.253 175.957H136.029V94.2466H137.253V175.957Z" fill="#BBCDF9"/>
<path d="M181.706 175.957H180.473V94.2466H181.706V175.957Z" fill="#BBCDF9"/>
<path d="M212.326 175.957H211.103V94.2466H212.326V175.957Z" fill="#BBCDF9"/>
<path d="M237.623 175.957H236.412V94.2466H237.623V175.957Z" fill="#849AFD"/>
<path d="M138.433 120.916C138.433 122.034 137.603 122.917 136.575 122.917C135.548 122.917 134.718 122.034 134.718 120.916C134.718 119.809 135.548 118.914 136.575 118.914C137.603 118.914 138.433 119.809 138.433 120.916Z" fill="#849AFD"/>
<path d="M182.952 156.825C182.952 157.944 182.113 158.839 181.094 158.839C180.068 158.839 179.237 157.944 179.237 156.825C179.237 155.719 180.068 154.824 181.094 154.824C182.113 154.824 182.952 155.719 182.952 156.825Z" fill="#849AFD"/>
<path d="M213.574 135.102C213.574 136.208 212.743 137.104 211.716 137.104C210.689 137.104 209.858 136.208 209.858 135.102C209.858 133.996 210.689 133.101 211.716 133.101C212.743 133.101 213.574 133.996 213.574 135.102Z" fill="#849AFD"/>
<path d="M384.636 99.1815H335.265V96.4387H384.636V99.1815Z" fill="#C5D4FF"/>
<path d="M384.636 103.006H335.265V100.263H384.636V103.006Z" fill="#C5D4FF"/>
<path d="M384.636 106.834H335.265V104.091H384.636V106.834Z" fill="#C5D4FF"/>
<path d="M376.66 110.658H335.265V107.915H376.66V110.658Z" fill="#C5D4FF"/>
<path d="M360.902 114.487H335.265V111.744H360.902V114.487Z" fill="#C5D4FF"/>
<path d="M384.636 125.838H335.265V123.092H384.636V125.838Z" fill="#C5D4FF"/>
<path d="M384.636 129.663H335.265V126.92H384.636V129.663Z" fill="#C5D4FF"/>
<path d="M365.73 133.49H335.265V130.747H365.73V133.49Z" fill="#C5D4FF"/>
<path d="M376.66 137.315H335.265V134.572H376.66V137.315Z" fill="#C5D4FF"/>
<path d="M452.441 99.1815H403.082V96.4387H452.441V99.1815Z" fill="#C5D4FF"/>
<path d="M452.441 103.006H403.082V100.263H452.441V103.006Z" fill="#C5D4FF"/>
<path d="M452.441 106.834H403.082V104.091H452.441V106.834Z" fill="#C5D4FF"/>
<path d="M444.432 110.658H403.082V107.915H444.432V110.658Z" fill="#C5D4FF"/>
<path d="M428.696 114.487H403.082V111.744H428.696V114.487Z" fill="#C5D4FF"/>
<path d="M446.651 59.9859H100.798C97.6067 59.9859 95.0168 57.207 95.0168 53.7589V32.8833C95.0168 29.4322 97.6067 26.6532 100.798 26.6532H446.651C449.854 26.6532 452.442 29.4322 452.442 32.8833V53.7589C452.442 57.207 449.854 59.9859 446.651 59.9859Z" fill="#F8FAFF"/>
<path d="M150.092 200.576H100.742V197.844H150.092V200.576Z" fill="#C5D4FF"/>
<path d="M94.525 199.199C94.525 199.988 93.9457 200.635 93.2026 200.635C92.4814 200.635 91.8806 199.988 91.8806 199.199C91.8806 198.433 92.4814 197.786 93.2026 197.786C93.9457 197.786 94.525 198.433 94.525 199.199Z" fill="#849AFD"/>
<path d="M139.241 205.32H100.742V202.577H139.241V205.32Z" fill="#C5D4FF"/>
<path d="M94.525 203.932C94.525 204.732 93.9457 205.38 93.2026 205.38C92.4814 205.38 91.8806 204.732 91.8806 203.932C91.8806 203.143 92.4814 202.519 93.2026 202.519C93.9457 202.519 94.525 203.143 94.525 203.932Z" fill="#849AFD"/>
<path d="M127.461 210.054H100.742V207.323H127.461V210.054Z" fill="#C5D4FF"/>
<path d="M94.525 208.676C94.525 209.465 93.9457 210.112 93.2026 210.112C92.4814 210.112 91.8806 209.465 91.8806 208.676C91.8806 207.875 92.4814 207.263 93.2026 207.263C93.9457 207.263 94.525 207.875 94.525 208.676Z" fill="#849AFD"/>
<path d="M182.319 34.6829H132.969V31.9522H182.319V34.6829Z" fill="#C5D4FF"/>
<path d="M171.456 39.4293H132.969V36.6834H171.456V39.4293Z" fill="#C5D4FF"/>
<path d="M443.481 34.6829H223.812V31.9522H443.481V34.6829Z" fill="#C5D4FF"/>
<path d="M125.057 54.6877H103.967V31.9525H125.057V54.6877Z" fill="#C5D4FF"/>
<path d="M287.948 134.503V131.38C295.367 131.38 301.41 124.87 301.41 116.888H304.305C304.305 126.603 296.962 134.503 287.948 134.503Z" fill="#D4E0FF"/>
<path d="M304.305 116.889H301.41C301.41 113.004 300.011 109.366 297.454 106.623L299.519 104.42C302.613 107.741 304.305 112.178 304.305 116.889Z" fill="#849AFD"/>
<path d="M287.948 134.503C278.921 134.503 271.589 126.603 271.589 116.888C271.589 107.15 278.921 99.2501 287.948 99.2501C292.318 99.2501 296.428 101.077 299.519 104.419L297.454 106.622C294.92 103.889 291.543 102.37 287.948 102.37C280.515 102.37 274.484 108.883 274.484 116.888C274.484 124.87 280.515 131.38 287.948 131.38V134.503Z" fill="#C5D4FF"/>
<path d="M265.599 177.64H258.247V162.511H265.599V177.64Z" fill="#849AFD"/>
<path d="M273.731 177.64H266.377V160.05H273.731V177.64Z" fill="#C5D4FF"/>
<path d="M281.86 177.64H274.494V164.018H281.86V177.64Z" fill="#849AFD"/>
<path d="M289.991 177.64H282.625V150.408H289.991V177.64Z" fill="#849AFD"/>
<path d="M298.111 177.64H290.757V153.481H298.111V177.64Z" fill="#C5D4FF"/>
<path d="M306.229 177.64H298.886V173.343H306.229V177.64Z" fill="#849AFD"/>
<path d="M314.371 177.64H307.016V160.05H314.371V177.64Z" fill="#849AFD"/>
<path d="M321.879 178.476H254.006V176.793H321.879V178.476Z" fill="#566DC1"/>
<path d="M124.653 182.208C124.817 187.624 123.845 193.37 117.616 193.57C113.212 193.747 112.196 188.684 112.01 182.68C111.835 177.299 114.283 177.84 117.769 177.711C121.266 177.593 124.468 176.828 124.653 182.208Z" fill="white"/>
<path d="M148.923 160.298L148.639 150.502C148.639 150.502 151.262 148.913 150.715 146.335C150.388 144.769 146.563 141.683 145.066 143.615C143.58 145.522 144.65 148.242 145.164 149.337C145.7 150.444 144.65 159.921 144.65 159.921L148.923 160.298Z" fill="white"/>
<path d="M85.8265 242.172L87.1158 253.063C87.1158 253.063 84.3401 255.147 85.2035 257.949C85.7171 259.656 90.2958 262.623 91.7603 260.327C93.2136 258.031 91.7712 255.123 91.0718 253.969C90.3943 252.792 90.6236 242.113 90.6236 242.113L85.8265 242.172Z" fill="white"/>
<path d="M100.459 317.231H102.372V309.543H100.459V317.231Z" fill="white"/>
<path d="M99.3221 317.76C99.3221 318.937 100.262 318.643 101.409 318.643C102.579 318.643 103.508 318.937 103.508 317.76C103.508 316.583 102.579 315.641 101.409 315.641C100.262 315.641 99.3221 316.583 99.3221 317.76Z" fill="#4A545A"/>
<path d="M102.371 237.015C96.8637 236.933 97.7161 288.914 100.065 313.639C102.448 313.992 101.672 313.898 103.049 313.639C105.617 300.688 121.407 256.501 120.61 236.898C117.495 236.898 106.382 237.051 102.371 237.015Z" fill="#0F2D3A"/>
<path d="M131.92 317.231H130.008V309.543H131.92V317.231Z" fill="white"/>
<path d="M133.045 317.76C133.045 318.937 132.105 318.643 130.958 318.643C129.81 318.643 128.871 318.937 128.871 317.76C128.871 316.583 129.81 315.641 130.958 315.641C132.105 315.641 133.045 316.583 133.045 317.76Z" fill="#4A545A"/>
<path d="M130.008 237.015C135.504 236.933 134.663 288.914 132.313 313.639C129.92 313.992 130.696 313.898 129.319 313.639C126.751 300.688 110.96 256.501 111.769 236.898C114.894 236.898 125.986 237.051 130.008 237.015Z" fill="#0F2D3A"/>
<path d="M150.793 159.532C150.793 167.174 150.968 183.622 135.767 205.615C130.205 213.644 133.286 216.823 132.817 243.997C129.735 246.117 107.781 249.849 99.6399 243.468C98.7874 229.163 99.5523 225.713 99.8474 216.153C97.6399 218.06 90.9958 224.182 92.1761 247.906C89.4443 247.906 85.5977 247.647 85.5977 247.647C85.5977 247.647 80.243 209.347 102.59 198.103C127.604 185.505 139.92 197.456 143.067 158.838C145.722 158.59 149.208 159.167 150.793 159.532Z" fill="#3B2E72"/>
<path d="M108.949 185.977C109.409 193.571 110.785 195.843 117.441 194.63C121.167 193.959 122.172 191.275 121.67 185.6C121.899 179.536 125.429 183.092 125.287 178.854C125.101 173.014 119.768 172.06 116.042 172.461C109.966 173.108 108.447 177.582 108.949 185.977Z" fill="#07181E"/>
<path d="M462.575 269.371H429.953V186.778H462.575V269.371Z" fill="#C5D4FF"/>
<path d="M422.718 269.371H390.121V140.107H422.718V269.371Z" fill="#C5D4FF"/>
<path d="M382.888 269.371H350.269V160.334H382.888V269.371Z" fill="#C5D4FF"/>
<path d="M207.279 221.451L210.108 222.004L210.841 217.766L208.009 217.177L207.279 221.451Z" fill="#E6E7E8"/>
<path d="M205.366 208.499C204.493 213.503 204.613 218.978 210.393 220.156C214.48 220.98 216.097 216.411 217.071 210.878C217.943 205.874 215.593 206.027 212.371 205.344C209.137 204.697 206.241 203.495 205.366 208.499Z" fill="#FEFEFE"/>
<path d="M223.177 306.54L221.868 311.956L223.767 312.639L225.275 307.164L223.177 306.54Z" fill="white"/>
<path d="M220.83 312.544C220.36 313.604 221.342 313.757 222.402 314.287C223.462 314.817 226.993 316.877 227.451 315.782C227.801 314.958 225.527 312.898 224.173 311.873C223.767 311.579 223.876 312.132 223.395 312.073C222.402 311.956 222.304 311.249 221.767 311.52C221.364 311.72 221.026 312.073 220.83 312.544Z" fill="#4A545A"/>
<path d="M236.423 304.244L238.292 309.46L240.191 308.836L237.822 292.035L236.423 304.244Z" fill="white"/>
<path d="M237.943 310.931C238.15 312.108 239.023 311.602 240.161 311.367C241.297 311.131 245.253 310.601 245.046 309.424C244.881 308.541 241.929 308.282 240.293 308.306C239.8 308.341 240.181 308.718 239.778 308.953C238.914 309.483 238.444 308.988 238.161 309.542C237.943 309.954 237.845 310.46 237.943 310.931Z" fill="#4A545A"/>
<path d="M233.058 247.966C233.058 247.966 235.374 249.026 236.51 249.202C237.822 249.379 239.515 249.084 239.92 248.614C240.717 247.73 241.699 246.789 243.35 247.672C243.756 247.907 244.707 247.884 243.951 247.177C243.199 246.435 241.165 245.411 239.702 245.611C238.247 245.847 235.187 246.706 233.547 245.529L233.058 247.966Z" fill="#E6E7E8"/>
<path d="M200.198 237.227C200.198 237.227 204.512 247.529 210.196 250.084C215.867 252.615 230.478 250.614 234.269 249.825C234.915 247.847 234.565 244.374 234.565 244.374C234.565 244.374 217.212 243.373 213.615 241.725C210.568 240.312 210.546 230.658 209.757 228.044C207.429 220.12 202.744 222.216 199.957 224.983C197.16 227.749 197.868 233.424 200.198 237.227Z" fill="#E29FAC"/>
<path d="M232.378 275.61C237.473 281.497 240.27 305.928 240.27 305.928L236.555 307.364C236.555 307.364 228.129 278.377 220.959 276.399C212.852 274.162 192.536 278.024 192.089 268.158C191.608 257.561 208.437 262.542 208.437 262.542C208.437 262.542 221.966 263.484 232.378 275.61Z" fill="#0F2D3A"/>
<path d="M190.066 258.479C188.997 260.716 185.467 273.549 193.344 275.198C201.684 276.928 210.949 278.259 217.322 278.671C221.112 278.93 225.079 281.932 224.707 286.324C224.117 293.388 221.496 309.047 221.496 309.047L225.493 310.225C225.493 310.225 234.991 280.437 231.374 272.278C226.663 261.681 191.476 255.595 190.066 258.479Z" fill="#15384C"/>
<path d="M207.278 220.651C218.611 220.592 207.933 250.203 214.535 261.8C212.524 266.133 192.46 273.279 185.958 270.454C184.733 256.832 193.509 220.71 207.278 220.651Z" fill="#F2B6BC"/>
<path d="M212.043 206.522C212.043 206.522 216.522 209.56 218.262 206.934C219.541 204.991 218.601 201.907 217.244 203.143C215.42 204.815 212.502 201.165 208.163 201.165C204.711 201.165 201.083 204.556 202.688 212.032C204.316 219.591 207.148 219.297 207.441 218.885C206.252 216.942 206.252 213.033 206.252 213.033C206.252 213.033 204.437 212.291 205.114 209.995C205.584 208.406 207.08 209.053 207.181 211.031C207.17 209.265 208.633 206.875 209.212 206.498C210.709 205.58 212.043 206.522 212.043 206.522Z" fill="#164559"/>
<path d="M234.871 250.238C234.871 250.238 237.232 251.18 238.379 251.298C239.702 251.439 241.372 251.062 241.767 250.591C242.531 249.649 243.471 248.649 245.155 249.473C245.569 249.673 246.52 249.614 245.745 248.908C244.948 248.237 242.892 247.295 241.428 247.589C239.974 247.883 236.958 248.884 235.265 247.765L234.871 250.238Z" fill="#FEFEFE"/>
<path d="M201.639 240.995C201.639 240.995 206.361 251.085 212.13 253.381C217.89 255.654 232.4 252.969 236.149 252.004C236.728 250.002 236.258 246.588 236.258 246.588C236.258 246.588 218.86 246.352 215.212 244.881C212.107 243.609 211.704 233.955 210.829 231.4C208.196 223.57 203.289 224.948 200.612 227.868C197.924 230.776 199.149 237.287 201.639 240.995Z" fill="#E8AAB3"/>
<path d="M330.249 282.38L330.162 281.05C329.91 277.377 333.385 274.398 337.886 274.457L358.54 274.728C363.052 274.786 366.879 277.848 367.117 281.521L367.207 282.852C367.338 285.23 365.131 287.113 362.233 287.055L335.735 286.737C332.839 286.701 330.38 284.735 330.249 282.38Z" fill="#B5B1E5"/>
<path d="M372.322 272.278H370.397C365.132 272.278 361.274 267.686 361.831 262.034L364.312 236.191C364.858 230.54 369.577 225.983 374.856 225.983H376.77C380.135 225.983 382.594 228.891 382.256 232.518L379.064 265.72C378.703 269.334 375.709 272.278 372.322 272.278Z" fill="#B5B1E5"/>
<path d="M357.589 313.522H354.279V286.501H357.589V313.522Z" fill="white"/>
<path d="M363.82 287.996H338.39C337.615 287.996 336.991 287.325 336.991 286.501C336.991 285.7 337.615 285.029 338.39 285.029H363.82C365.076 285.029 366.06 284.64 366.768 283.851C368.268 282.144 368.189 279.142 368.189 279.107L370.682 243.668C370.757 242.879 371.434 242.255 372.179 242.314C372.945 242.373 373.513 243.079 373.435 243.903L370.945 279.165C370.976 279.165 371.107 283.263 368.757 285.877C367.501 287.289 365.839 287.996 363.82 287.996Z" fill="white"/>
<path d="M370.429 264.566H344.748C343.984 264.566 343.383 263.895 343.383 263.071C343.383 262.247 343.984 261.599 344.748 261.599H370.429C371.196 261.599 371.817 262.247 371.817 263.071C371.817 263.895 371.196 264.566 370.429 264.566Z" fill="white"/>
<path d="M368.715 318.667H343.165V317.254C343.165 311.756 347.286 309.401 352.377 309.401H359.503C364.583 309.401 368.715 311.756 368.715 317.254V318.667Z" fill="#483680"/>
<path d="M217.222 282.38L217.311 281.05C217.54 277.377 214.066 274.398 209.562 274.457L188.919 274.728C184.418 274.786 180.571 277.848 180.342 281.521L180.255 282.852C180.124 285.23 182.342 287.113 185.238 287.055L211.727 286.737C214.611 286.701 217.071 284.735 217.222 282.38Z" fill="#B5B1E5"/>
<path d="M175.149 272.278H177.051C182.319 272.278 186.166 267.686 185.628 262.034L183.139 236.191C182.593 230.54 177.882 225.983 172.592 225.983H170.692C167.305 225.983 164.845 228.891 165.206 232.518L168.384 265.72C168.745 269.334 171.761 272.278 175.149 272.278Z" fill="#B5B1E5"/>
<path d="M189.858 313.522H193.17V286.501H189.858V313.522Z" fill="white"/>
<path d="M183.643 287.996H209.069C209.836 287.996 210.457 287.325 210.457 286.501C210.457 285.7 209.836 285.029 209.069 285.029H183.643C182.373 285.029 181.402 284.64 180.702 283.851C179.183 282.144 179.259 279.142 179.259 279.107L176.758 243.668C176.702 242.879 176.014 242.255 175.281 242.314C174.528 242.373 173.949 243.079 174.002 243.903L176.506 279.165C176.495 279.165 176.352 283.263 178.691 285.877C179.925 287.289 181.609 287.996 183.643 287.996Z" fill="white"/>
<path d="M177.018 264.566H202.7C203.463 264.566 204.076 263.895 204.076 263.071C204.076 262.247 203.463 261.599 202.7 261.599H177.018C176.255 261.599 175.642 262.247 175.642 263.071C175.642 263.895 176.255 264.566 177.018 264.566Z" fill="white"/>
<path d="M178.746 318.667H204.282V317.254C204.282 312.933 201.037 309.401 197.017 309.401H187.323C182.582 309.401 178.746 313.546 178.746 318.667Z" fill="#483680"/>
<path d="M231.746 258.15V317.937C231.746 318.349 231.43 318.667 231.058 318.667H229.625C229.242 318.667 228.948 318.349 228.948 317.937V258.15C228.948 257.738 229.242 257.385 229.625 257.385H231.058C231.43 257.385 231.746 257.738 231.746 258.15Z" fill="#483680"/>
<path d="M341.089 258.15V317.937C341.089 318.349 340.781 318.667 340.401 318.667H338.991C338.596 318.667 338.303 318.349 338.303 317.937V258.15C338.303 257.738 338.596 257.385 338.991 257.385H340.401C340.781 257.385 341.089 257.738 341.089 258.15Z" fill="#483680"/>
<path d="M350.761 259.092H219.255C218.436 259.092 217.77 258.362 217.77 257.479V254.653C217.77 253.77 218.436 253.028 219.255 253.028H350.761C351.603 253.028 352.269 253.77 352.269 254.653V257.479C352.269 258.362 351.603 259.092 350.761 259.092Z" fill="white"/>
<path d="M254.836 253.028H237.821L236.445 252.239V251.415H255.686V252.239L254.836 253.028Z" fill="#63569B"/>
<path d="M263.894 230.163L257.743 250.32L256.464 251.674L255.698 251.415L262.68 228.633L263.447 228.892L263.894 230.163Z" fill="#63569B"/>
<path d="M467.873 317.172H465.851V309.048H467.873V317.172Z" fill="white"/>
<path d="M444.007 317.289L442.04 316.759L443.864 308.871L445.831 309.365L444.007 317.289Z" fill="white"/>
<path d="M446.839 202.284C446.839 202.284 440.696 214.034 440.444 219.391C440.172 224.748 446.839 227.338 446.839 227.338V202.284Z" fill="#2F2666"/>
<path d="M469.054 317.702C469.054 318.938 468.069 318.644 466.869 318.644C465.632 318.644 464.651 318.938 464.651 317.702C464.651 316.465 465.632 315.465 466.869 315.465C468.069 315.465 469.054 316.465 469.054 317.702Z" fill="#4A545A"/>
<path d="M444.85 317.701C444.85 318.902 443.899 318.608 442.718 318.608C441.549 318.608 437.439 318.902 437.439 317.701C437.439 316.783 440.368 315.9 442.007 315.582C442.5 315.488 442.192 315.958 442.662 316.112C443.613 316.465 444.008 315.841 444.38 316.347C444.685 316.724 444.85 317.195 444.85 317.701Z" fill="#4A545A"/>
<path d="M459.676 232.836C459.676 232.836 457.818 267.78 450.967 291.705C448.256 301.182 447.056 307.87 445.361 313.757C442.826 313.639 442.281 313.109 442.281 313.109C442.281 313.109 442.116 291.328 442.552 281.379C443.699 255.971 446.214 232.365 446.214 232.365L459.676 232.836Z" fill="#E29FAC"/>
<path d="M441.461 218.625C441.371 218.861 441.514 222.711 442.552 223.747C443.612 224.807 444.935 225.631 445.394 225.772C445.864 225.889 445.252 222.628 445.252 222.628L444.138 218.943L441.461 218.625Z" fill="#1C184C"/>
<path d="M465.85 232.542C471.674 232.459 470.768 287.29 468.289 313.345C465.774 313.757 466.594 313.639 465.142 313.345C462.443 299.688 445.778 253.122 446.617 232.424C449.929 232.424 461.623 232.601 465.85 232.542Z" fill="#E8AAB3"/>
<path d="M452.607 173.791C452.607 173.791 453.592 171.672 455.852 170.894C459.24 169.717 468.528 170.765 466.321 183.363C465.963 185.423 469.524 190.097 470.058 193.629C471.186 200.871 470.092 207.935 468.234 206.816C466.519 205.792 454.957 203.084 452.935 203.731C450.915 204.379 444.357 198.162 448.968 186.483C450.257 183.269 449.494 184.74 449.986 181.856C450.445 179.006 448.587 176.122 452.607 173.791Z" fill="#07181E"/>
<path d="M459.634 193.63H456.562V189.015H459.634V193.63Z" fill="#D1D3D4"/>
<path d="M457.285 193.277C460.563 193.194 464.027 193.253 465.831 194.195C469.599 196.255 472.769 204.556 469.731 213.328C463.557 231.071 470.31 235.78 469.524 246.318C466.846 247.671 451.536 247.766 444.741 246.435C443.789 239.995 445.689 235.227 446.128 230.282C446.651 224.277 443.898 218.473 444.981 209.972C445.339 207.111 445.669 204.874 446.576 202.613C447.745 199.635 451.317 193.43 457.285 193.277Z" fill="#3B2E72"/>
<path d="M463.992 180.502C463.992 185.918 462.845 191.628 456.596 191.628C452.17 191.628 451.317 186.506 451.317 180.502C451.317 175.086 453.754 175.734 457.25 175.734C460.747 175.734 463.992 175.086 463.992 180.502Z" fill="white"/>
<path d="M452.17 175.051C452.17 175.051 455.885 180.361 460.935 180.596C463.063 180.678 464.213 182.739 463.808 185.776L465.142 180.773L464.68 176.052L455.742 172.884L452.17 175.051Z" fill="#07181E"/>
<path d="M455.393 176.605C454.761 178.889 451.264 180.502 451.264 180.502L451.024 177.299L451.712 175.781L453.536 175.004C453.536 175.004 456.051 174.309 455.393 176.605Z" fill="#07181E"/>
<path d="M442.575 221.003C442.575 221.121 442.827 223.747 444.139 224.418C445.417 225.124 446.838 224.418 446.838 224.418C446.838 224.418 447.613 221.157 446.128 220.474C444.651 219.803 442.334 218.708 442.575 221.003Z" fill="white"/>
<path d="M433.209 199.752L445.779 202.024L453.013 222.475L440.424 217.353L433.209 199.752Z" fill="#D1D3D4"/>
<path d="M441.842 214.975C440.913 214.563 439.845 213.68 439.822 212.173C439.736 209.441 436.457 209.559 436.544 204.932C436.597 202.99 434.118 204.438 434.795 209.088C434.98 210.325 435.123 212.091 436.435 214.151C437.724 216.176 444.324 221.651 445.362 222.298C445.471 222.357 445.647 222.475 445.887 222.628L448.257 216.824C446.106 216.211 443.789 215.564 441.842 214.975Z" fill="white"/>
<path d="M470.835 204.108C469.873 195.866 463.371 194.1 460.935 198.727C456.979 206.227 460.006 217.801 455.667 218.978C453.012 219.096 446.542 215.152 444.902 215.293C443.646 215.764 442.116 220.097 442.116 221.922C444.214 223.181 456.159 228.126 459.164 227.396C465.774 225.772 471.806 212.349 470.835 204.108Z" fill="#2F2666"/>
<path d="M437.548 199.988L438.314 201.989L441.624 202.613L440.883 200.576L437.548 199.988Z" fill="#151616"/>
</svg>
