<svg width="890" height="604" viewBox="0 0 1280 604" fill="none" xmlns="http://www.w3.org/2000/svg">
<path fill-rule="evenodd" clip-rule="evenodd" d="M0.749023 539.412C0.749023 539.412 86.653 436.091 164.869 440.199C243.085 444.308 298.671 505.02 356.918 505.02C415.166 505.02 477.887 401.904 544.15 401.904C610.413 401.904 678.747 496.149 728.393 478.57C778.04 460.991 856.845 346.068 876.722 307.385C896.599 268.702 986.506 155.421 1101.49 130.178C1216.48 104.935 1263.38 54.0231 1279.06 9.0625V603.999H0.749023V539.412Z" fill="url(#paint0_linear)"/>
<path d="M0.749878 543.897C0.749878 543.897 86.6539 438.01 164.87 442.22C243.086 446.43 298.672 508.648 356.919 508.648C415.167 508.648 477.888 402.972 544.151 402.972C610.414 402.972 678.748 499.558 728.394 481.54C778.041 463.522 856.846 345.747 876.723 306.106C896.6 266.464 986.507 150.367 1101.49 124.493C1216.48 98.6203 1263.38 47.0187 1279.06 0.373047" stroke="#2595FF" stroke-width="3"/>
<path d="M100.617 462.07C103.559 462.07 105.944 459.476 105.944 456.276C105.944 453.077 103.559 450.483 100.617 450.483C97.6757 450.483 95.291 453.077 95.291 456.276C95.291 459.476 97.6757 462.07 100.617 462.07Z" fill="#2A689A" stroke="#2595FF" stroke-width="2"/>
<path d="M340.967 509.862C343.909 509.862 346.293 507.269 346.293 504.069C346.293 500.87 343.909 498.276 340.967 498.276C338.025 498.276 335.641 500.87 335.641 504.069C335.641 507.269 338.025 509.862 340.967 509.862Z" fill="#2E6F9D" stroke="#2595FF" stroke-width="2"/>
<path d="M536.043 407.036C538.985 407.036 541.369 404.442 541.369 401.243C541.369 398.043 538.985 395.45 536.043 395.45C533.101 395.45 530.716 398.043 530.716 401.243C530.716 404.442 533.101 407.036 536.043 407.036Z" fill="#3275A2" stroke="#2595FF" stroke-width="2"/>
<path d="M727.79 485.242C730.732 485.242 733.116 482.648 733.116 479.449C733.116 476.249 730.732 473.656 727.79 473.656C724.848 473.656 722.464 476.249 722.464 479.449C722.464 482.648 724.848 485.242 727.79 485.242Z" fill="#32749A" stroke="#2595FF" stroke-width="2"/>
<path d="M898.897 274.52C901.839 274.52 904.224 271.926 904.224 268.727C904.224 265.527 901.839 262.934 898.897 262.934C895.956 262.934 893.571 265.527 893.571 268.727C893.571 271.926 895.956 274.52 898.897 274.52Z" fill="#347FAA" stroke="#2595FF" stroke-width="2"/>
<path d="M1159.99 109.586C1162.93 109.586 1165.32 106.992 1165.32 103.793C1165.32 100.594 1162.93 98 1159.99 98C1157.05 98 1154.67 100.594 1154.67 103.793C1154.67 106.992 1157.05 109.586 1159.99 109.586Z" fill="#34789C" stroke="#2595FF" stroke-width="2"/>
<defs>
<linearGradient id="paint0_linear" x1="1239.43" y1="114.961" x2="826.058" y2="951.278" gradientUnits="userSpaceOnUse">
<stop stop-color="#4CC7FF" stop-opacity="0.149"/>
<stop offset="1" stop-color="#2595FF" stop-opacity="0.149"/>
</linearGradient>
</defs>
</svg>
